<?xml version="1.0" encoding="utf-8"?>
<!-- Generator: Adobe Illustrator 27.5.0, SVG Export Plug-In . SVG Version: 6.00 Build 0)  -->
<svg version="1.1" xmlns="http://www.w3.org/2000/svg" xmlns:xlink="http://www.w3.org/1999/xlink" x="0px" y="0px"
	 viewBox="0 0 2500 2500" style="enable-background:new 0 0 2500 2500;" xml:space="preserve">
<g id="Background">
	<rect style="fill:#FFFFFF;" width="2500" height="2500"/>
</g>
<g id="Illustration">
	<g id="Barcode_scanning_1_">
		<g>
			<g>
				<g>
					<path style="fill:#FFFFFF;" d="M2145.215,1569.82l-66.138-12.021c-34.755-5.972-34.777-55.874-0.027-61.876
						c52.325-9.037,89.761-36.844,112.353-72.744c0.632-2.671,1.438-5.156,2.363-7.512c9.118-41.082,15.33-82.285,18.85-123.37
						c-0.039-0.209-0.059-0.408-0.043-0.588c-13.771-59.149-58.46-111.167-134.057-123.97L536.386,907.498
						c-33.989,25.099-66.199,55.889-98.826,104.259c-28.634,42.451-49.533,86.504-64.713,129.543l1284.42,218.669
						c21.619,3.683,21.736,34.695,0.146,38.542c-196.666,35.045-195.592,317.541,1.334,351.089l342.194,59.884
						C2059.339,1739.05,2108.442,1658.922,2145.215,1569.82z"/>
					<path d="M2000.94,1811.811c-0.134,0-0.268-0.011-0.402-0.035l-342.195-59.884c-103.346-17.606-149.901-101.717-150.187-177.265
						c-0.288-75.548,45.625-160.012,148.846-178.406c9.857-1.756,14.242-9.82,14.215-17.033
						c-0.027-7.213-4.474-15.244-14.342-16.925L372.455,1143.595c-0.677-0.115-1.268-0.523-1.615-1.115
						c-0.348-0.592-0.416-1.307-0.189-1.953c16.553-46.924,38.415-90.686,64.981-130.07c29.229-43.334,59.876-75.665,99.372-104.831
						c0.509-0.374,1.156-0.532,1.768-0.422l1542.13,260.242c69.53,11.774,120.347,58.778,135.936,125.736
						c0.057,0.24,0.075,0.487,0.052,0.733c0.039,0.204,0.061,0.373,0.043,0.581c-3.567,41.645-9.925,83.256-18.895,123.677
						c-0.027,0.118-0.061,0.233-0.107,0.345c-0.952,2.427-1.693,4.782-2.265,7.197c-0.057,0.25-0.157,0.487-0.293,0.704
						c-17.432,27.7-51.348,62.987-113.926,73.796c-16.671,2.879-24.125,16.467-24.121,28.656s7.473,25.77,24.144,28.635
						l66.16,12.024c0.691,0.126,1.288,0.557,1.627,1.175c0.336,0.616,0.377,1.352,0.109,2.002
						c-35.889,86.958-84.551,167.795-144.636,240.263C2002.285,1811.508,2001.626,1811.811,2000.94,1811.811z M375.965,1139.472
						l1281.692,218.204c12.533,2.136,18.179,12.334,18.214,21.496c0.034,9.16-5.533,19.401-18.048,21.631
						c-100.563,17.92-145.295,100.206-145.013,173.808c0.279,73.599,45.634,155.542,146.326,172.697l340.875,59.653
						c58.776-71.1,106.523-150.269,141.95-235.367l-63.3-11.505c-19.32-3.318-27.984-19.075-27.988-33.215
						c-0.007-14.14,8.643-29.903,27.981-33.242c60.648-10.476,93.588-44.518,110.576-71.368c0.595-2.443,1.35-4.828,2.304-7.275
						c8.886-40.075,15.189-81.328,18.738-122.617c-0.016-0.14-0.027-0.276-0.029-0.408
						c-15.226-64.922-64.595-110.494-132.116-121.929L536.974,909.957c-38.668,28.684-68.762,60.519-97.484,103.102
						C413.637,1051.387,392.272,1093.906,375.965,1139.472z"/>
				</g>
				<path style="fill:#FFFFFF;" d="M859.524,2077.168c77.796,35.065,159.443,60.321,241.414,73.723
					c285.764,46.723,595.493-46.982,816.434-252.884L859.524,2077.168z"/>
				<path d="M1247.318,2165c-30.997,0-61.959-1.542-92.781-4.671c-1.279-0.131-2.211-1.272-2.081-2.551
					c0.132-1.277,1.279-2.198,2.549-2.08c269.861,27.412,551.496-67.502,755.042-254.09L859.912,2079.463
					c-1.268,0.211-2.468-0.638-2.684-1.905c-0.214-1.267,0.638-2.468,1.906-2.682l1057.847-179.161
					c1.022-0.182,2.018,0.344,2.474,1.263c0.454,0.921,0.252,2.031-0.5,2.732C1737.098,2069.19,1491.577,2165,1247.318,2165z"/>
			</g>
		</g>
		<g>
			<g>
				<path d="M1201.894,1524.905l-21.238-10.362c-3.427-1.672-5.625-5.14-5.558-8.925c0.071-3.999-0.024-7.977-0.286-11.925
					c-0.25-3.766,1.761-7.327,5.086-9.169l20.644-11.438c4.065-2.252,6.014-6.995,4.693-11.419l-5.377-18.009
					c-1.321-4.425-5.56-7.35-10.206-7.046l-23.654,1.553c-3.825,0.251-7.463-1.69-9.331-5.007
					c-1.932-3.431-4.003-6.782-6.209-10.046c-2.133-3.156-2.226-7.251-0.263-10.514l12.141-20.182
					c2.385-3.964,1.68-9.036-1.696-12.212l-13.745-12.929c-3.377-3.176-8.525-3.609-12.396-1.043l-19.662,13.036
					c-3.184,2.111-7.309,2.234-10.6,0.293c-3.396-2.003-6.892-3.875-10.481-5.612c-3.451-1.671-5.606-5.177-5.552-8.983
					l0.333-23.466c0.065-4.614-3.104-8.656-7.631-9.733l-18.429-4.384c-4.528-1.077-9.206,1.099-11.264,5.239l-10.464,21.05
					c-1.688,3.396-5.189,5.576-9.009,5.511c-4.035-0.069-8.049,0.027-12.033,0.289c-3.8,0.249-7.393-1.743-9.25-5.037
					l-11.535-20.454c-2.271-4.028-7.056-5.957-11.521-4.646l-18.175,5.336c-4.466,1.311-7.42,5.512-7.113,10.117l1.558,23.436
					c0.251,3.77-1.674,7.384-5.005,9.225c-3.498,1.933-6.915,4.007-10.241,6.218c-3.167,2.105-7.29,2.163-10.564,0.229
					l-20.357-12.021c-3.999-2.362-9.117-1.662-12.324,1.686l-13.052,13.625c-3.207,3.348-3.646,8.449-1.057,12.284l13.147,19.48
					c2.129,3.154,2.251,7.242,0.291,10.504c-2.023,3.366-3.912,6.832-5.667,10.389c-1.687,3.421-5.227,5.558-9.067,5.505
					l-23.678-0.321c-4.656-0.063-8.736,3.079-9.825,7.566l-4.431,18.264c-1.088,4.488,1.105,9.122,5.282,11.16l21.238,10.361
					c3.427,1.672,5.625,5.14,5.558,8.926c-0.071,3.999,0.024,7.976,0.286,11.924c0.25,3.766-1.761,7.327-5.086,9.169l-20.644,11.439
					c-4.065,2.252-6.015,6.994-4.693,11.419l5.378,18.01c1.321,4.424,5.56,7.35,10.206,7.045l23.65-1.553
					c3.804-0.25,7.45,1.656,9.306,4.956c1.95,3.466,4.042,6.851,6.272,10.147c2.123,3.138,2.179,7.223,0.227,10.469l-12.138,20.177
					c-2.385,3.965-1.681,9.037,1.696,12.213l13.745,12.928c3.377,3.176,8.525,3.61,12.396,1.043l19.661-13.036
					c3.184-2.111,7.309-2.234,10.599-0.293c3.396,2.004,6.893,3.875,10.482,5.612c3.451,1.671,5.606,5.177,5.552,8.983
					l-0.334,23.465c-0.065,4.614,3.104,8.656,7.631,9.734l18.429,4.384c4.528,1.077,9.205-1.099,11.263-5.239l10.465-21.051
					c1.689-3.396,5.189-5.576,9.008-5.511c4.035,0.068,8.049-0.027,12.032-0.288c3.8-0.25,7.393,1.743,9.251,5.037l11.534,20.453
					c2.271,4.028,7.056,5.957,11.521,4.646l18.176-5.336c4.465-1.311,7.42-5.512,7.113-10.117l-1.558-23.44
					c-0.252-3.79,1.709-7.397,5.056-9.248c3.463-1.916,6.845-3.97,10.14-6.158c3.185-2.115,7.317-2.209,10.61-0.265l20.361,12.023
					c4,2.362,9.118,1.662,12.324-1.686l13.052-13.626c3.207-3.347,3.646-8.449,1.057-12.284l-13.147-19.479
					c-2.129-3.154-2.251-7.242-0.292-10.504c2.023-3.366,3.913-6.833,5.668-10.39c1.687-3.42,5.226-5.557,9.067-5.505l23.678,0.322
					c4.657,0.063,8.737-3.079,9.825-7.566l4.431-18.265C1208.265,1531.577,1206.071,1526.943,1201.894,1524.905z M1031.242,1584.097
					c-44.939,0.966-82.146-34.353-83.104-78.886c-0.957-44.534,34.698-81.418,79.637-82.384s82.146,34.353,83.103,78.886
					C1111.836,1546.246,1076.182,1583.131,1031.242,1584.097z"/>
				<path style="fill:#FFFFFF;" d="M998.906,1682.146c-0.959,0-1.934-0.111-2.906-0.343l-18.427-4.384
					c-5.628-1.338-9.502-6.285-9.42-12.029l0.334-23.466c0.041-2.898-1.622-5.589-4.24-6.855c-3.642-1.765-7.225-3.683-10.65-5.703
					c-2.506-1.478-5.694-1.388-8.132,0.228l-19.661,13.036c-4.806,3.183-11.081,2.654-15.276-1.287l-13.747-12.929
					c-4.203-3.956-5.065-10.169-2.093-15.108l12.138-20.177c1.495-2.485,1.431-5.611-0.161-7.965
					c-2.263-3.346-4.406-6.814-6.373-10.311c-1.397-2.486-4.215-3.954-7.126-3.774l-23.648,1.553
					c-5.776,0.375-10.947-3.2-12.588-8.703l-5.378-18.008c-1.645-5.512,0.739-11.318,5.796-14.12l20.642-11.438
					c2.552-1.416,4.081-4.156,3.892-6.98c-0.266-3.995-0.363-8.073-0.291-12.121c0.05-2.84-1.62-5.508-4.251-6.793l-21.238-10.361
					c-5.196-2.534-7.88-8.208-6.523-13.8l4.431-18.265c1.357-5.58,6.364-9.429,12.117-9.343l23.678,0.322
					c3.022,0.077,5.669-1.612,6.951-4.208c1.775-3.6,3.713-7.153,5.758-10.559c1.482-2.465,1.393-5.608-0.225-8.004l-13.149-19.479
					c-3.224-4.78-2.686-11.029,1.309-15.196l13.051-13.625c3.979-4.156,10.225-5.009,15.187-2.079l20.356,12.021
					c2.527,1.49,5.703,1.425,8.093-0.165c3.363-2.234,6.862-4.359,10.404-6.315c2.504-1.386,4.001-4.147,3.808-7.036l-1.559-23.435
					c-0.382-5.733,3.229-10.874,8.782-12.504l18.175-5.336c5.542-1.626,11.381,0.732,14.201,5.737l11.536,20.452
					c1.427,2.532,4.215,4.069,7.071,3.858c4.035-0.264,8.134-0.368,12.227-0.293c2.779,0.101,5.585-1.609,6.885-4.219l10.463-21.052
					c2.558-5.143,8.266-7.806,13.885-6.465l18.429,4.383c5.628,1.338,9.502,6.286,9.42,12.03l-0.334,23.466
					c-0.041,2.898,1.622,5.588,4.24,6.854c3.649,1.769,7.232,3.688,10.65,5.704c2.502,1.477,5.694,1.386,8.13-0.229l19.663-13.035
					c4.806-3.183,11.081-2.656,15.276,1.287l13.746,12.928c4.203,3.956,5.065,10.169,2.093,15.108l-12.14,20.181
					c-1.49,2.481-1.413,5.626,0.198,8.012c2.227,3.295,4.349,6.729,6.307,10.208c1.418,2.514,4.174,4.013,7.153,3.826l23.653-1.553
					c5.755-0.37,10.947,3.199,12.588,8.701l5.378,18.01c1.645,5.512-0.738,11.318-5.796,14.12l-20.642,11.437
					c-2.552,1.414-4.081,4.155-3.892,6.98c0.264,3.968,0.361,8.046,0.291,12.12c-0.052,2.842,1.618,5.509,4.251,6.794l21.238,10.361
					c0,0,0,0,0,0.001c5.196,2.536,7.88,8.209,6.523,13.799l-4.431,18.265c-1.352,5.58-6.303,9.455-12.117,9.344l-23.678-0.322
					c-2.995-0.044-5.669,1.613-6.951,4.208c-1.775,3.6-3.713,7.153-5.758,10.559c-1.481,2.464-1.393,5.605,0.225,8.003l13.147,19.48
					c3.224,4.778,2.688,11.026-1.307,15.195l-13.049,13.626c-3.981,4.157-10.225,5.01-15.189,2.079l-20.361-12.022
					c-2.522-1.489-5.714-1.411-8.141,0.199c-3.324,2.207-6.789,4.313-10.297,6.255c-2.54,1.403-4.056,4.174-3.863,7.058l1.559,23.44
					c0.382,5.731-3.229,10.873-8.78,12.504l-18.177,5.336c-5.53,1.627-11.379-0.732-14.203-5.736l-11.533-20.454
					c-1.427-2.533-4.224-4.063-7.071-3.857c-4.024,0.264-8.137,0.362-12.224,0.293c-2.799-0.02-5.587,1.605-6.887,4.219
					l-10.465,21.052C1007.773,1679.59,1003.501,1682.146,998.906,1682.146z M949.726,1623.668c2.163,0,4.324,0.561,6.235,1.689
					c3.317,1.955,6.787,3.814,10.313,5.522c4.238,2.051,6.935,6.411,6.866,11.11l-0.334,23.466c-0.05,3.548,2.352,6.606,5.844,7.437
					l18.427,4.384c3.49,0.828,7.055-0.816,8.641-4.01l10.466-21.053c2.093-4.21,6.371-6.841,11.133-6.801
					c3.953,0.065,7.948-0.027,11.84-0.284c4.649-0.307,9.127,2.136,11.429,6.214l11.533,20.455c1.754,3.107,5.38,4.569,8.841,3.557
					l18.175-5.336c3.442-1.011,5.683-4.19,5.446-7.73l-1.559-23.439c-0.311-4.677,2.145-9.167,6.255-11.439
					c3.397-1.882,6.753-3.922,9.977-6.06c3.894-2.589,9.03-2.721,13.081-0.331l20.361,12.023c3.09,1.828,6.98,1.295,9.459-1.291
					l13.051-13.627c2.465-2.572,2.797-6.426,0.809-9.371l-13.147-19.48c-2.627-3.891-2.765-8.995-0.357-13.003
					c1.981-3.296,3.856-6.734,5.576-10.22c2.045-4.148,6.357-6.804,11.02-6.804c0.055,0,0.109,0.001,0.166,0.001l23.678,0.322
					c0.036,0.001,0.073,0.001,0.109,0.001c3.549,0,6.594-2.366,7.423-5.789l4.431-18.265c0.836-3.447-0.827-6.95-4.042-8.519
					l-21.238-10.361c-4.254-2.077-6.948-6.418-6.864-11.06c0.07-3.943-0.025-7.889-0.282-11.728
					c-0.307-4.617,2.161-9.075,6.282-11.358l20.642-11.438c3.129-1.734,4.606-5.319,3.592-8.718l-5.378-18.01
					c-1.018-3.408-4.231-5.612-7.825-5.388l-23.653,1.553c-4.733,0.3-9.223-2.12-11.511-6.187c-1.897-3.37-3.951-6.695-6.108-9.885
					c-2.624-3.88-2.754-8.989-0.332-13.017l12.142-20.181c1.831-3.045,1.3-6.877-1.297-9.318l-13.746-12.928
					c-2.606-2.455-6.526-2.782-9.514-0.799l-19.663,13.035c-3.913,2.593-9.039,2.733-13.067,0.359
					c-3.308-1.953-6.778-3.81-10.311-5.524c-4.238-2.051-6.935-6.411-6.866-11.109l0.334-23.466c0.05-3.549-2.352-6.607-5.844-7.438
					l-18.429-4.383c-3.504-0.836-7.053,0.817-8.641,4.011l-10.463,21.05c-2.063,4.15-6.337,6.803-10.929,6.803
					c-0.068,0-0.136,0-0.202-0.001c-3.958-0.072-7.937,0.027-11.842,0.284c-4.667,0.299-9.13-2.137-11.429-6.218l-11.536-20.452
					c-1.75-3.107-5.387-4.568-8.836-3.557l-18.177,5.336c-3.442,1.011-5.683,4.189-5.446,7.73l1.559,23.436
					c0.309,4.681-2.125,9.161-6.203,11.415c-3.431,1.896-6.821,3.956-10.077,6.12c-3.867,2.569-8.989,2.686-13.035,0.295
					l-20.359-12.022c-3.095-1.828-6.982-1.296-9.459,1.292l-13.054,13.626c-2.465,2.572-2.797,6.427-0.809,9.373l13.149,19.479
					c2.624,3.889,2.765,8.993,0.357,13.004c-1.981,3.297-3.856,6.735-5.576,10.221c-2.07,4.197-6.553,6.833-11.186,6.803
					l-23.678-0.321c-3.542-0.152-6.694,2.33-7.532,5.787l-4.431,18.265c-0.836,3.448,0.825,6.952,4.042,8.52l21.238,10.362
					c4.251,2.074,6.944,6.414,6.864,11.057c-0.073,3.918,0.023,7.864,0.282,11.729c0.307,4.616-2.161,9.074-6.283,11.358
					l-20.643,11.438c-3.129,1.735-4.606,5.32-3.592,8.72l5.378,18.008c1.018,3.409,4.231,5.63,7.825,5.39l23.649-1.553
					c4.69-0.297,9.216,2.099,11.488,6.137c1.904,3.385,3.979,6.745,6.169,9.985c2.606,3.848,2.722,8.94,0.293,12.972l-12.138,20.177
					c-1.831,3.045-1.3,6.877,1.297,9.318l13.747,12.928c2.606,2.454,6.519,2.783,9.513,0.799l19.661-13.036
					C944.948,1624.354,947.338,1623.668,949.726,1623.668z M1029.428,1586.444c-21.665,0.001-42.137-8.14-57.833-23.04
					c-16.15-15.33-25.305-35.979-25.782-58.143c-0.477-22.164,7.784-43.187,23.26-59.196c15.471-16.005,36.3-25.083,58.653-25.565
					c22.256-0.441,43.55,7.693,59.696,23.02c16.15,15.33,25.305,35.979,25.782,58.143s-7.784,43.187-23.26,59.196
					c-15.471,16.005-36.3,25.083-58.653,25.565C1030.671,1586.437,1030.049,1586.444,1029.428,1586.444z M1031.241,1584.098h0.023
					H1031.241z M1029.585,1425.134c-0.584,0-1.17,0.006-1.759,0.019c-21.117,0.453-40.796,9.03-55.409,24.145
					c-14.605,15.111-22.401,34.95-21.951,55.863c0.448,20.913,9.091,40.399,24.332,54.868
					c15.246,14.475,35.198,22.233,56.393,21.742c21.117-0.453,40.796-9.03,55.409-24.145c14.605-15.111,22.401-34.95,21.951-55.863
					c-0.448-20.913-9.091-40.399-24.333-54.868C1069.395,1432.823,1050.055,1425.134,1029.585,1425.134z"/>
			</g>
			<g>
				<path d="M1431.356,1666.761l-16.443-5.173c-2.654-0.835-4.615-3.098-4.977-5.836c-0.382-2.892-0.882-5.752-1.499-8.571
					c-0.589-2.689,0.476-5.476,2.675-7.166l13.653-10.489c2.688-2.065,3.581-5.698,2.148-8.746l-5.831-12.409
					c-1.432-3.049-4.807-4.7-8.126-3.976l-16.895,3.684c-2.732,0.596-5.567-0.411-7.274-2.601c-1.765-2.266-3.623-4.459-5.568-6.574
					c-1.881-2.045-2.392-4.989-1.329-7.556l6.571-15.875c1.29-3.118,0.233-6.701-2.547-8.626l-11.317-7.837
					c-2.78-1.925-6.541-1.68-9.055,0.591l-12.771,11.535c-2.068,1.868-5.031,2.403-7.615,1.36c-2.667-1.077-5.392-2.048-8.169-2.913
					c-2.67-0.831-4.605-3.127-4.978-5.879l-2.303-16.964c-0.453-3.336-3.177-5.908-6.56-6.194l-13.769-1.165
					c-3.383-0.286-6.522,1.79-7.558,5l-5.267,16.319c-0.85,2.633-3.139,4.585-5.901,4.952c-2.918,0.388-5.804,0.892-8.65,1.512
					c-2.714,0.592-5.522-0.456-7.219-2.631l-10.537-13.505c-2.075-2.659-5.736-3.533-8.815-2.103l-12.533,5.819
					c-3.079,1.43-4.755,4.781-4.035,8.069l3.664,16.737c0.59,2.693-0.407,5.508-2.611,7.197c-2.314,1.774-4.554,3.64-6.714,5.596
					c-2.057,1.862-5.024,2.35-7.596,1.31l-15.988-6.465c-3.141-1.27-6.757-0.211-8.708,2.552l-7.939,11.243
					c-1.951,2.763-1.714,6.49,0.568,8.976l11.595,12.628c1.878,2.044,2.409,4.981,1.349,7.546c-1.094,2.647-2.082,5.353-2.962,8.109
					c-0.847,2.65-3.168,4.575-5.944,4.954l-17.116,2.334c-3.366,0.459-5.969,3.168-6.268,6.523l-1.217,13.656
					c-0.299,3.355,1.786,6.461,5.02,7.478l16.444,5.173c2.653,0.835,4.615,3.099,4.977,5.837c0.382,2.892,0.882,5.751,1.498,8.571
					c0.589,2.69-0.477,5.476-2.675,7.165l-13.653,10.489c-2.688,2.065-3.581,5.698-2.148,8.746l5.831,12.409
					c1.432,3.049,4.807,4.7,8.126,3.976l16.892-3.683c2.717-0.592,5.554,0.387,7.25,2.567c1.782,2.289,3.658,4.504,5.624,6.641
					c1.871,2.033,2.355,4.975,1.298,7.528l-6.57,15.87c-1.291,3.119-0.233,6.701,2.547,8.627l11.316,7.837
					c2.78,1.925,6.541,1.68,9.055-0.591l12.771-11.535c2.068-1.868,5.031-2.404,7.615-1.36c2.667,1.077,5.393,2.048,8.17,2.913
					c2.671,0.831,4.605,3.127,4.979,5.879l2.302,16.964c0.453,3.336,3.177,5.908,6.56,6.195l13.769,1.165
					c3.383,0.286,6.521-1.79,7.557-5l5.268-16.32c0.85-2.633,3.139-4.585,5.901-4.952c2.918-0.388,5.803-0.892,8.649-1.512
					c2.714-0.592,5.522,0.456,7.219,2.631l10.537,13.505c2.075,2.659,5.736,3.533,8.815,2.103l12.533-5.819
					c3.079-1.43,4.755-4.781,4.035-8.069l-3.664-16.74c-0.593-2.707,0.431-5.521,2.645-7.219c2.29-1.758,4.508-3.606,6.648-5.541
					c2.068-1.871,5.039-2.386,7.625-1.341l15.991,6.467c3.141,1.27,6.758,0.211,8.708-2.552l7.939-11.244
					c1.95-2.762,1.714-6.49-0.569-8.976l-11.595-12.627c-1.878-2.045-2.409-4.98-1.349-7.546c1.095-2.648,2.083-5.353,2.963-8.109
					c0.846-2.65,3.168-4.575,5.944-4.954l17.116-2.334c3.366-0.459,5.969-3.168,6.268-6.523l1.217-13.656
					C1436.675,1670.885,1434.59,1667.779,1431.356,1666.761z M1314.664,1727.956c-32.314,5.567-62.982-15.879-68.499-47.902
					c-5.517-32.022,16.207-62.494,48.521-68.061c32.314-5.567,62.982,15.879,68.499,47.901
					C1368.702,1691.917,1346.978,1722.389,1314.664,1727.956z"/>
				<path style="fill:#FFFFFF;" d="M1300.612,1802.922c-0.277,0-0.554-0.011-0.834-0.035l-13.769-1.166
					c-4.501-0.382-8.066-3.754-8.671-8.2l-2.302-16.964c-0.252-1.853-1.572-3.413-3.365-3.971c-2.836-0.883-5.646-1.884-8.35-2.976
					c-1.74-0.706-3.776-0.339-5.183,0.93l-12.772,11.535c-3.34,3.014-8.25,3.331-11.938,0.776l-11.315-7.835
					c-3.71-2.57-5.096-7.27-3.372-11.43l6.569-15.87c0.716-1.729,0.377-3.716-0.861-5.063c-1.986-2.155-3.92-4.439-5.749-6.785
					c-1.127-1.454-3.056-2.13-4.919-1.723l-16.891,3.683c-4.401,0.961-8.818-1.201-10.729-5.259l-5.83-12.411
					c-1.911-4.069-0.743-8.832,2.838-11.581l13.651-10.488c1.497-1.15,2.211-3.042,1.822-4.823
					c-0.629-2.866-1.145-5.816-1.534-8.765c-0.241-1.813-1.561-3.353-3.367-3.921l-16.444-5.174
					c-4.308-1.354-7.039-5.426-6.641-9.903l1.218-13.657c0.4-4.467,3.801-8.013,8.273-8.622l17.116-2.335
					c1.886-0.257,3.472-1.575,4.042-3.357c0.893-2.803,1.913-5.593,3.029-8.29c0.707-1.712,0.348-3.708-0.913-5.083l-11.595-12.627
					c-3.047-3.318-3.358-8.207-0.754-11.893l7.937-11.243c2.588-3.67,7.309-5.053,11.481-3.367l15.989,6.465
					c1.759,0.712,3.785,0.368,5.162-0.877c2.193-1.987,4.501-3.91,6.86-5.718c1.463-1.122,2.152-3.028,1.754-4.853l-3.665-16.737
					c-0.961-4.383,1.229-8.774,5.328-10.677l12.533-5.82c4.085-1.895,8.87-0.753,11.627,2.783l10.538,13.505
					c1.159,1.485,3.083,2.189,4.89,1.789c2.897-0.632,5.871-1.151,8.839-1.545c1.847-0.245,3.413-1.564,3.992-3.36l5.271-16.32
					c1.372-4.268,5.505-6.979,9.966-6.604l13.769,1.166c4.501,0.382,8.066,3.754,8.671,8.2l2.302,16.964
					c0.252,1.853,1.572,3.413,3.365,3.971c2.824,0.878,5.633,1.88,8.348,2.976c1.75,0.703,3.779,0.34,5.185-0.93l12.772-11.535
					c3.333-3.016,8.243-3.335,11.938-0.777l11.318,7.837c3.708,2.57,5.094,7.269,3.372,11.429l-6.571,15.874
					c-0.716,1.728-0.366,3.726,0.893,5.092c1.974,2.15,3.89,4.41,5.689,6.719c1.147,1.475,3.097,2.163,4.942,1.759l16.896-3.684
					c4.408-0.96,8.82,1.201,10.729,5.259l5.83,12.411c1.911,4.069,0.743,8.832-2.838,11.581l-13.651,10.488
					c-1.497,1.15-2.211,3.042-1.822,4.823c0.629,2.866,1.145,5.816,1.534,8.765c0.241,1.813,1.561,3.353,3.367,3.921l16.444,5.174
					c4.31,1.355,7.039,5.428,6.639,9.904l-1.216,13.656c-0.4,4.467-3.801,8.013-8.273,8.622l-17.116,2.333
					c-1.884,0.258-3.472,1.576-4.042,3.358c-0.893,2.803-1.913,5.593-3.029,8.29c-0.707,1.712-0.348,3.708,0.913,5.083
					l11.595,12.627c3.047,3.315,3.356,8.205,0.757,11.891l-7.941,11.244c-2.588,3.668-7.309,5.053-11.479,3.367l-15.991-6.467
					c-1.752-0.71-3.792-0.354-5.192,0.909c-2.179,1.97-4.465,3.874-6.794,5.661c-1.484,1.139-2.186,3.054-1.788,4.876l3.665,16.74
					c0.961,4.383-1.229,8.774-5.328,10.677l-12.533,5.82c-4.083,1.895-8.871,0.753-11.629-2.783l-10.536-13.504
					c-1.156-1.483-3.079-2.178-4.89-1.789c-2.897,0.632-5.871,1.151-8.839,1.545c-1.847,0.245-3.413,1.564-3.992,3.36l-5.271,16.32
					C1308.453,1800.285,1304.767,1802.922,1300.612,1802.922z M1261.501,1764.606c1.207,0,2.418,0.225,3.563,0.688
					c2.588,1.045,5.276,2.004,7.991,2.848c3.51,1.094,6.098,4.15,6.594,7.788l2.302,16.965c0.307,2.27,2.138,3.992,4.449,4.188
					l13.769,1.166c2.327,0.208,4.438-1.2,5.149-3.396l5.269-16.32c1.127-3.495,4.192-6.063,7.807-6.544
					c2.842-0.377,5.689-0.875,8.461-1.479c3.549-0.774,7.296,0.589,9.548,3.473l10.536,13.505c1.4,1.793,3.922,2.39,6.003,1.425
					l12.533-5.819c2.104-0.977,3.231-3.223,2.742-5.461l-3.665-16.74c-0.784-3.576,0.591-7.33,3.501-9.563
					c2.229-1.711,4.417-3.534,6.503-5.42c2.713-2.453,6.66-3.148,10.059-1.771l15.991,6.465c2.125,0.859,4.617,0.127,5.933-1.736
					l7.939-11.244c1.327-1.88,1.17-4.373-0.38-6.06l-11.595-12.629c-2.481-2.702-3.181-6.629-1.788-10.007
					c1.068-2.58,2.043-5.247,2.897-7.93c1.113-3.481,4.194-6.053,7.846-6.552l17.118-2.333c2.306-0.315,4.06-2.135,4.265-4.425
					l1.216-13.656c0.204-2.281-1.193-4.358-3.399-5.051l-16.444-5.174c-3.526-1.11-6.11-4.152-6.585-7.751
					c-0.373-2.82-0.866-5.638-1.465-8.379c-0.775-3.534,0.614-7.266,3.531-9.508l13.651-10.488c1.834-1.409,2.436-3.839,1.461-5.912
					l-5.83-12.409c-0.979-2.079-3.242-3.191-5.526-2.693l-16.896,3.684c-3.597,0.786-7.364-0.569-9.604-3.445
					c-1.722-2.21-3.554-4.373-5.444-6.429c-2.479-2.694-3.172-6.628-1.766-10.022l6.571-15.873c0.877-2.119,0.168-4.514-1.722-5.825
					l-11.318-7.836c-1.906-1.321-4.444-1.155-6.169,0.403l-12.774,11.536c-2.715,2.454-6.664,3.158-10.043,1.792
					c-2.599-1.049-5.287-2.007-7.991-2.848c-3.51-1.094-6.099-4.15-6.594-7.788l-2.302-16.965c-0.307-2.27-2.138-3.992-4.449-4.188
					l-13.769-1.166c-2.313-0.199-4.44,1.2-5.146,3.395l-5.271,16.321c-1.127,3.495-4.192,6.063-7.807,6.544
					c-2.842,0.377-5.689,0.875-8.461,1.479c-3.554,0.775-7.298-0.59-9.547-3.473l-10.538-13.505
					c-1.425-1.821-3.888-2.404-6.001-1.425l-12.533,5.819c-2.104,0.977-3.231,3.223-2.742,5.461l3.665,16.738
					c0.784,3.58-0.577,7.324-3.467,9.541c-2.258,1.73-4.467,3.572-6.569,5.474c-2.69,2.436-6.628,3.12-10.029,1.742l-15.989-6.464
					c-2.131-0.863-4.619-0.127-5.933,1.736l-7.941,11.244c-1.327,1.879-1.17,4.372,0.382,6.06l11.595,12.629
					c2.481,2.702,3.181,6.629,1.788,10.006c-1.068,2.58-2.043,5.248-2.897,7.929c-1.116,3.483-4.194,6.054-7.848,6.552
					l-17.116,2.335c-2.306,0.315-4.06,2.135-4.265,4.425l-1.218,13.656c-0.202,2.28,1.195,4.358,3.401,5.051l16.444,5.174
					c3.526,1.11,6.11,4.152,6.585,7.751c0.373,2.82,0.866,5.638,1.466,8.379c0.775,3.534-0.614,7.266-3.531,9.508l-13.651,10.488
					c-1.834,1.408-2.433,3.839-1.461,5.913l5.83,12.408c0.979,2.08,3.247,3.195,5.526,2.693l16.891-3.683
					c3.599-0.783,7.359,0.553,9.582,3.412c1.75,2.244,3.601,4.428,5.501,6.491c2.461,2.677,3.142,6.598,1.736,9.994l-6.569,15.871
					c-0.879,2.12-0.17,4.514,1.722,5.823l11.315,7.837c1.906,1.321,4.442,1.155,6.171-0.405l12.772-11.534
					C1256.816,1765.464,1259.149,1764.606,1261.501,1764.606z M1304.363,1731.167c-12.59,0-24.844-3.825-35.33-11.16
					c-13.451-9.405-22.385-23.454-25.16-39.558c-2.774-16.104,0.945-32.333,10.47-45.697c9.523-13.358,23.71-22.255,39.947-25.052
					c33.519-5.788,65.463,16.565,71.186,49.799c2.774,16.104-0.945,32.333-10.47,45.697c-9.523,13.358-23.71,22.255-39.947,25.052
					C1311.488,1730.864,1307.912,1731.167,1304.363,1731.167z M1304.883,1613.445c-3.233,0-6.507,0.274-9.802,0.841
					c-15.021,2.588-28.143,10.815-36.947,23.168c-8.8,12.346-12.236,27.334-9.675,42.205c2.563,14.871,10.815,27.846,23.242,36.536
					c12.433,8.693,27.561,12.054,42.569,9.468c15.021-2.588,28.143-10.815,36.947-23.168c8.8-12.346,12.235-27.334,9.675-42.205
					C1356.163,1632.846,1332.076,1613.445,1304.883,1613.445z"/>
			</g>
		</g>
		<g>
			<g>
				<polygon style="fill:#FFFFFF;" points="963.888,1038.66 1024.526,847.912 1533.021,934.269 				"/>
				<g>
					<g>
						<polygon style="fill:#FFFFFF;" points="1082.199,507.082 1571.311,592.031 2060.002,506.975 1565.764,421 						"/>
						<polygon points="1272.055,472.067 1761.167,557.016 1870.823,539.498 1376.585,453.523 						"/>
						<g>
							<polygon style="fill:#FFFFFF;" points="1571.218,1311.971 1571.218,591.324 1080.187,506.781 1080.187,1225.451 							"/>
							<path d="M1571.218,1314.297c-0.134,0-0.27-0.011-0.404-0.035l-491.03-86.519c-1.111-0.197-1.922-1.162-1.922-2.292v-170.037
								c0-1.285,1.041-2.327,2.327-2.327c1.286,0,2.327,1.042,2.327,2.327v168.085l486.376,85.7V593.284l-486.376-83.741V825.89
								c0,1.285-1.041,2.327-2.327,2.327c-1.286,0-2.327-1.042-2.327-2.327V506.781c0-0.686,0.302-1.337,0.827-1.779
								c0.525-0.443,1.213-0.633,1.895-0.513l491.03,84.542c1.116,0.192,1.931,1.16,1.931,2.293v720.647
								c0,0.687-0.304,1.341-0.832,1.782C1572.29,1314.107,1571.761,1314.297,1571.218,1314.297z"/>
							<g>
								<g>
									<path d="M1482.815,1123.556c-0.136,0-0.273-0.011-0.407-0.036l-317.38-56.479c-1.111-0.198-1.92-1.162-1.92-2.29V872.649
										c0-1.285,1.041-2.327,2.327-2.327c1.286,0,2.327,1.042,2.327,2.327v190.152l312.727,55.651V925.743
										c0-1.285,1.041-2.327,2.327-2.327c1.286,0,2.327,1.042,2.327,2.327v195.487c0,0.688-0.304,1.342-0.832,1.784
										C1483.888,1123.366,1483.358,1123.556,1482.815,1123.556z"/>
									<g>
										<path d="M1198.458,1035.312c-1.286,0-2.327-1.042-2.327-2.327V877.451c0-1.285,1.041-2.327,2.327-2.327
											c1.286,0,2.327,1.042,2.327,2.327v155.534C1200.785,1034.271,1199.744,1035.312,1198.458,1035.312z"/>
										<path d="M1229.209,1036.327c-1.286,0-2.327-1.042-2.327-2.327V882.673c0-1.285,1.041-2.327,2.327-2.327
											c1.286,0,2.327,1.042,2.327,2.327V1034C1231.536,1035.285,1230.495,1036.327,1229.209,1036.327z"/>
										<path d="M1261.697,1045.512c-1.286,0-2.327-1.042-2.327-2.327V887.466c0-1.285,1.041-2.327,2.327-2.327
											s2.327,1.042,2.327,2.327v155.719C1264.023,1044.47,1262.983,1045.512,1261.697,1045.512z"/>
										<path d="M1282.775,1048.912c-1.286,0-2.327-1.042-2.327-2.327V890.865c0-1.285,1.041-2.327,2.327-2.327
											c1.286,0,2.327,1.042,2.327,2.327v155.721C1285.102,1047.871,1284.061,1048.912,1282.775,1048.912z"/>
										<path d="M1324.933,1052.819c-1.286,0-2.327-1.042-2.327-2.327v-152.01c0-1.285,1.041-2.327,2.327-2.327
											c1.286,0,2.327,1.042,2.327,2.327v152.01C1327.259,1051.777,1326.219,1052.819,1324.933,1052.819z"/>
										<path d="M1367.09,1062.511c-1.286,0-2.327-1.042-2.327-2.327V906.09c0-1.285,1.041-2.327,2.327-2.327
											c1.286,0,2.327,1.042,2.327,2.327v154.095C1369.417,1061.469,1368.376,1062.511,1367.09,1062.511z"/>
										<path d="M1409.25,1063.526c-1.286,0-2.327-1.042-2.327-2.327V912.817c0-1.285,1.041-2.327,2.327-2.327
											c1.286,0,2.327,1.042,2.327,2.327v148.382C1411.577,1062.484,1410.536,1063.526,1409.25,1063.526z"/>
										<path d="M1451.407,1076.111c-1.286,0-2.327-1.042-2.327-2.327V920.391c0-1.285,1.041-2.327,2.327-2.327
											s2.327,1.042,2.327,2.327v153.394C1453.734,1075.069,1452.693,1076.111,1451.407,1076.111z"/>
									</g>
								</g>
								<path d="M1482.815,926.559c-1.286,0-2.327-1.042-2.327-2.327V778.666l-312.727-54.379v145.924
									c0,1.285-1.041,2.327-2.327,2.327c-1.286,0-2.327-1.042-2.327-2.327V721.521c0-0.687,0.304-1.338,0.829-1.78
									c0.527-0.441,1.22-0.63,1.895-0.512l317.381,55.188c1.116,0.194,1.929,1.161,1.929,2.293v147.524
									C1485.142,925.518,1484.101,926.559,1482.815,926.559z"/>
								<g>
									<path d="M1198.458,879.593c-1.286,0-2.327-1.042-2.327-2.327v-108.76c0-1.285,1.041-2.327,2.327-2.327
										c1.286,0,2.327,1.042,2.327,2.327v108.76C1200.785,878.551,1199.744,879.593,1198.458,879.593z"/>
									<path d="M1221.066,880.608V778.199c0-4.498,3.647-8.143,8.143-8.143c4.497,0,8.143,3.646,8.143,8.143v104.832
										L1221.066,880.608z"/>
									<path d="M1261.697,889.793c-1.286,0-2.327-1.042-2.327-2.327v-108.76c0-1.285,1.041-2.327,2.327-2.327
										s2.327,1.042,2.327,2.327v108.76C1264.023,888.751,1262.983,889.793,1261.697,889.793z"/>
									<path d="M1282.775,893.192c-1.286,0-2.327-1.042-2.327-2.327V782.106c0-1.285,1.041-2.327,2.327-2.327
										c1.286,0,2.327,1.042,2.327,2.327v108.759C1285.102,892.15,1284.061,893.192,1282.775,893.192z"/>
									<path d="M1316.789,897.099V794.691c0-4.498,3.647-8.143,8.143-8.143s8.143,3.646,8.143,8.143v105.175L1316.789,897.099z"/>
									<path d="M1367.09,906.792c-1.286,0-2.327-1.042-2.327-2.327v-108.76c0-1.285,1.041-2.327,2.327-2.327
										c1.286,0,2.327,1.042,2.327,2.327v108.76C1369.417,905.75,1368.376,906.792,1367.09,906.792z"/>
									<path d="M1401.106,911.996V805.398c0-4.498,3.647-8.143,8.143-8.143s8.143,3.646,8.143,8.143v108.241L1401.106,911.996z"/>
									<path d="M1451.407,922.717c-1.286,0-2.327-1.042-2.327-2.327V809.305c0-1.285,1.041-2.327,2.327-2.327
										s2.327,1.042,2.327,2.327v111.085C1453.734,921.675,1452.693,922.717,1451.407,922.717z"/>
								</g>
							</g>
						</g>
						<g>
							<g>
								<polygon style="fill:#FFFFFF;" points="1571.218,1311.971 1571.218,591.324 2057.99,506.674 2057.99,1225.871 								"/>
								<path d="M1571.218,1314.297c-0.543,0-1.072-0.19-1.495-0.544c-0.527-0.442-0.832-1.094-0.832-1.782V591.323
									c0-1.131,0.813-2.098,1.929-2.293l486.772-84.649c0.677-0.117,1.37,0.07,1.895,0.512c0.525,0.442,0.829,1.093,0.829,1.78
									v719.197c0,1.128-0.809,2.095-1.922,2.291l-486.772,86.1C1571.488,1314.286,1571.352,1314.297,1571.218,1314.297z
									 M1573.544,593.281v715.916l482.118-85.277V509.44L1573.544,593.281z"/>
							</g>
							<polygon points="1871.501,543.448 1871.501,616.731 1770.23,633.871 1770.23,561.078 							"/>
						</g>
						<path d="M1571.311,594.358c-0.134,0-0.266-0.011-0.398-0.034l-489.112-84.949c-1.113-0.193-1.927-1.158-1.929-2.288
							c-0.002-1.129,0.807-2.097,1.92-2.295l483.566-86.081c0.266-0.047,0.538-0.048,0.804-0.002l494.238,85.975
							c1.115,0.194,1.929,1.161,1.929,2.293c0,1.13-0.813,2.098-1.927,2.293l-488.692,85.056
							C1571.579,594.346,1571.445,594.358,1571.311,594.358z M1095.634,507.054l475.677,82.615l475.12-82.693l-480.662-83.614
							L1095.634,507.054z"/>
					</g>
				</g>
				<path d="M963.888,1040.986c-0.661,0-1.3-0.283-1.745-0.788c-0.541-0.613-0.72-1.464-0.473-2.243l60.639-190.747
					c0.352-1.107,1.484-1.79,2.606-1.589l508.493,86.357c1.113,0.189,1.931,1.15,1.938,2.279c0.007,1.128-0.797,2.099-1.906,2.303
					l-569.133,104.39C964.168,1040.974,964.027,1040.986,963.888,1040.986z M1026.131,850.545l-58.853,185.127l552.366-101.314
					L1026.131,850.545z"/>
			</g>
			<g>
				<g>
					<g>
						<g>
							<polygon style="fill:#FFFFFF;" points="339.436,1976.289 326.476,2049.95 364.767,2054.444 380.387,1985.283 							"/>
							<path d="M364.768,2056.771c-0.091,0-0.182-0.005-0.273-0.016l-38.29-4.494c-0.636-0.075-1.213-0.408-1.595-0.921
								c-0.384-0.513-0.536-1.162-0.427-1.793l12.96-73.661c0.111-0.625,0.47-1.177,0.997-1.53c0.527-0.352,1.17-0.473,1.795-0.339
								l40.951,8.994c0.604,0.133,1.132,0.501,1.463,1.024c0.332,0.524,0.443,1.156,0.307,1.761l-15.621,69.161
								C366.792,2056.028,365.843,2056.771,364.768,2056.771z M329.193,2047.926l33.764,3.963l14.644-64.836l-36.295-7.971
								L329.193,2047.926z"/>
						</g>
						<g>
							<g>
								<path style="fill:#FFFFFF;" d="M368.928,2038.49c-12.512,5.036-26.835,1.804-35.973-8.116l-4.808-5.22
									c-1.666-1.808-4.582-1.592-5.962,0.443l-26.99,39.78c-4.839,6.509-4.144,16.401,1.707,22.077
									c7.621,7.393,19.226,17.377,33.281,25.372c26.509,15.077,49.4,47.212,76.531,39.441
									c27.131-7.771,28.411-9.727,31.478-18.296c3.067-8.569-12.616-25.504-34.212-45.196
									c-13.203-12.04-26.031-38.057-30.096-48.181C373.101,2038.64,370.881,2037.704,368.928,2038.49z"/>
								<path d="M398.355,2155.776c-16.159,0.001-30.972-11.947-45.37-23.56c-7.743-6.245-15.75-12.702-23.951-17.367
									c-14.449-8.217-26.33-18.525-33.751-25.724c-6.612-6.417-7.489-17.692-1.954-25.136l26.932-39.699
									c1.057-1.56,2.745-2.536,4.626-2.675c1.859-0.137,3.692,0.575,4.972,1.962l4.808,5.221
									c8.43,9.151,21.849,12.176,33.394,7.533c1.525-0.617,3.199-0.6,4.71,0.047c1.502,0.642,2.665,1.831,3.274,3.348
									c4.222,10.512,16.987,35.914,29.506,47.329c27.798,25.348,37.888,39.168,34.834,47.699
									c-3.536,9.879-6.067,12.028-33.028,19.75C404.308,2155.377,401.309,2155.776,398.355,2155.776z M325.344,2026.251
									c-0.041,0-0.077,0.001-0.111,0.005c-0.268,0.019-0.77,0.129-1.123,0.647l-26.989,39.781
									c-4.249,5.72-3.595,14.252,1.402,19.101c7.228,7.012,18.788,17.043,32.81,25.02c8.53,4.851,16.684,11.429,24.573,17.79
									c16.846,13.587,32.746,26.42,50.169,21.435c26.63-7.626,27.198-9.215,29.929-16.843
									c3.256-9.094-24.476-34.383-33.589-42.694c-14.167-12.917-27.229-40.418-30.688-49.033
									c-0.146-0.364-0.425-0.648-0.784-0.801c-0.373-0.159-0.775-0.161-1.147-0.01c-13.333,5.363-28.82,1.865-38.552-8.698
									l-4.808-5.221C326.066,2026.328,325.628,2026.251,325.344,2026.251z"/>
							</g>
							<g>
								<path style="fill:#FFFFFF;" d="M438.404,2136.56c0,0-22.078,16.204-52.066-0.517
									c-19.981-11.141-93.631-73.205-93.631-73.205l-6.407,8.71c-3.245,4.412-3.713,12.809,0.427,16.434
									c18.693,16.367,73.553,59.527,102.452,68.086C433.618,2169.229,438.404,2136.56,438.404,2136.56z"/>
								<path d="M408.386,2161.528c-5.964,0-12.594-1.075-19.868-3.229c-31.385-9.295-89.482-56.448-103.324-68.566
									c-5.194-4.549-4.676-14.251-0.768-19.563l6.405-8.709c0.382-0.519,0.961-0.857,1.6-0.933
									c0.654-0.074,1.281,0.117,1.775,0.532c0.734,0.619,73.706,62.047,93.265,72.951c28.361,15.814,49.346,0.826,49.556,0.674
									c0.757-0.557,1.772-0.602,2.577-0.118c0.804,0.484,1.238,1.403,1.102,2.331c-0.073,0.503-1.934,12.413-13.081,19.537
									C422.315,2159.829,415.878,2161.528,408.386,2161.528z M293.111,2066.217l-4.935,6.709
									c-2.586,3.514-3.008,10.596,0.086,13.305c20.286,17.762,74.027,59.446,101.579,67.605
									c15.017,4.449,26.87,4.018,35.218-1.286c5.024-3.189,7.83-7.63,9.357-11.075c-8.587,4.006-26.716,9.144-49.212-3.4
									C366.82,2127.824,305.033,2076.225,293.111,2066.217z"/>
							</g>
						</g>
					</g>
					<g>
						<g>
							<polygon style="fill:#FFFFFF;" points="546.789,1991.323 528.02,2093.052 570.182,2114.08 594.091,2003.406 							"/>
							<path d="M570.182,2116.407c-0.357,0-0.711-0.082-1.038-0.244l-42.162-21.029c-0.929-0.464-1.438-1.485-1.25-2.505
								l18.77-101.729c0.116-0.633,0.491-1.191,1.034-1.537c0.543-0.348,1.211-0.453,1.829-0.294l47.302,12.083
								c1.213,0.309,1.963,1.522,1.7,2.745l-23.91,110.674c-0.152,0.703-0.62,1.295-1.268,1.606
								C570.87,2116.331,570.527,2116.407,570.182,2116.407z M530.626,2091.75l37.913,18.911l22.805-105.556l-42.719-10.912
								L530.626,2091.75z"/>
						</g>
						<g>
							<g>
								<path style="fill:#FFFFFF;" d="M521.684,2086.033c-1.488,9.734-12.851,28.629-13.231,44.844
									c-0.239,10.182,7.26,18.864,17.287,20.281c28.352,4.009,101.643,7.959,156.566,3.617c3.76-0.297,10.436-2.968,12.4-12.378
									c6.594-31.593-48.095-40.02-107.878-63.721c-2.343-0.929-5.01-0.428-6.84,1.312l-6.552,6.228
									c-6.557,6.233-16.19,7.907-24.446,4.247l-19.596-8.688C526.057,2080.296,522.239,2082.408,521.684,2086.033z"/>
								<path d="M627.685,2159.001c-41.106,0-81.866-2.653-102.27-5.538c-11.261-1.593-19.552-11.325-19.288-22.64
									c0.243-10.384,4.803-21.809,8.468-30.99c2.284-5.722,4.256-10.663,4.79-14.152c0-0.001,0-0.001,0-0.001
									c0.375-2.458,1.838-4.551,4.01-5.742c2.161-1.182,4.687-1.29,6.941-0.29l19.597,8.689
									c7.416,3.284,16.007,1.791,21.899-3.806l6.551-6.229c2.468-2.346,6.112-3.054,9.302-1.789
									c13.956,5.533,27.372,10.142,40.351,14.599c41.576,14.28,74.415,25.559,68.946,51.761
									c-2.047,9.813-9.086,13.795-14.492,14.223C665.439,2158.444,646.521,2159.001,627.685,2159.001z M523.984,2086.384
									c-0.613,4.016-2.677,9.188-5.067,15.175c-3.71,9.294-7.914,19.829-8.137,29.375c-0.211,8.956,6.362,16.66,15.285,17.923
									c29.552,4.18,102.128,7.868,156.058,3.601c1.377-0.109,8.343-1.128,10.307-10.534c4.628-22.184-24.957-32.345-65.904-46.41
									c-13.029-4.475-26.5-9.101-40.553-14.674c-1.509-0.596-3.224-0.266-4.383,0.836l-6.551,6.228
									c-7.262,6.902-17.852,8.742-26.991,4.687l-19.597-8.688c-0.913-0.404-1.938-0.363-2.82,0.118
									C524.741,2084.509,524.141,2085.37,523.984,2086.384z"/>
							</g>
							<g>
								<path style="fill:#FFFFFF;" d="M507.233,2126.631c0,0-0.053,1.644-0.072,2.437c-0.239,10.182,7.26,18.864,17.287,20.281
									c28.352,4.009,102.792,13.418,157.716,9.076c3.76-0.297,10.578-6.618,12.542-16.028c0.602-2.884,0.317-8.101,0.317-8.101
									l-3.894,0.146c-55.472,2.08-111.02,0.069-166.199-6.016L507.233,2126.631z"/>
								<path d="M651.134,2161.861c-48.704,0-102.901-6.797-127.011-10.207c-11.261-1.593-19.552-11.325-19.288-22.641
									c0.018-0.8,0.075-2.459,0.075-2.459c0.02-0.644,0.309-1.251,0.793-1.675c0.486-0.424,1.122-0.629,1.765-0.563l17.695,1.796
									c54.897,6.055,110.699,8.079,165.878,6.005l3.892-0.146c0.032-0.001,0.061-0.001,0.091-0.001
									c1.229,0,2.254,0.961,2.32,2.199c0.014,0.225,0.295,5.559-0.361,8.705c-2.088,10.014-9.389,17.457-14.635,17.873
									C672.476,2161.526,661.935,2161.861,651.134,2161.861z M509.486,2129.199c-0.17,8.924,6.389,16.59,15.287,17.848
									c29.306,4.143,103.29,13.327,157.208,9.06c2.277-0.179,8.58-5.224,10.45-14.184c0.282-1.36,0.345-3.494,0.332-5.213
									l-1.545,0.059c-55.418,2.08-111.44,0.048-166.542-6.028L509.486,2129.199z"/>
							</g>
						</g>
					</g>
					<g>
						<path d="M490.379,1405.304c1.211,5.614-17.826,44.37-14.719,82.433c4.87,59.661,8.707,90.638-23.304,149.924
							c-30.875,57.182-86.615,111.793-126.435,349.78c-1.996,11.926,7.144,22.819,19.234,22.966l30.585,0.37
							c7.516,0.091,14.425-4.094,17.834-10.793c20.111-39.518,82.205-156.405,106.497-200.237
							c28.532-51.484,109.83-180.316,114.565-242.055c4.464-58.204,0.372-141.424-0.112-150.763
							c-0.026-0.497-0.423-0.881-0.92-0.906L490.379,1405.304z"/>
						<path d="M662.163,1391.449c0,0,72.396,150.66,29.029,332.094c-31.366,131.225-75.876,277.488-90.176,319.174
							c-2.8,8.162-10.496,13.625-19.124,13.586l-33.409-0.151c-12.061-0.055-21.368-10.62-19.882-22.589
							c8.599-69.284,35.063-293.565,33.135-347.795c-3.179-89.375-29.454-120.668-34.024-183.558
							c-4.979-68.52,14.064-109.485,14.064-109.485L662.163,1391.449z"/>
						<path style="fill:#FFFFFF;" d="M556.992,1711.774c-0.07,0-0.143-0.003-0.216-0.01c-1.279-0.118-2.222-1.251-2.104-2.53
							c6.203-67.13-7.069-104.778-18.779-137.994c-8.505-24.127-16.539-46.914-15.364-76.996c0.05-1.285,1.193-2.292,2.415-2.234
							c1.284,0.05,2.284,1.131,2.234,2.415c-1.138,29.193,6.387,50.544,15.103,75.267c11.87,33.666,25.323,71.825,19.027,139.969
							C559.196,1710.869,558.18,1711.774,556.992,1711.774z"/>
					</g>
				</g>
				<g>
					<g>
						<g>
							<path d="M1024.334,1018.63c12.947,10.65,6.203,20.483,1.696,24.192l-37.949,31.228
								c-17.276,13.287-18.782,18.725-25.17,30.345l-43.382,78.913c-8.475,15.417-18.071,30.191-28.71,44.202l-11.366,14.97
								c-3.444,4.536-9.629,5.977-14.723,3.43c-5.099-2.549-7.657-8.371-6.086-13.851l3.177-11.083
								c4.086-14.255,9.051-28.242,14.865-41.884l40.137-94.167l1.624-9.217c4.398-35.779,29.04-56.453,29.04-56.453
								C984.449,986.262,1024.334,1018.63,1024.334,1018.63z"/>
							<g>
								<path style="fill:#FFFFFF;" d="M1024.334,1018.629c0,0-17.689-14.328-40.417-14.18c-7.995,0.838-15.926,3.895-22.656,10.751
									c-0.652,0.664-14.42,19.983-16.594,26.515c-4.26,12.8,6.024,18.631,16.931,15.358c31.093-9.332,57.065-27.579,66.493-34.739
									C1027.08,1021.116,1025.854,1019.879,1024.334,1018.629z"/>
								<path d="M955.742,1060.296c-4.406,0-8.336-1.436-10.981-4.161c-3.526-3.633-4.344-9.015-2.302-15.154
									c2.306-6.928,16.121-26.371,17.143-27.411c6.469-6.589,14.567-10.437,24.071-11.433c0.136-0.001,0.273-0.001,0.407-0.001
									c23.321,0,40.974,14.084,41.719,14.687c0.002,0.003,0.007,0.007,0.011,0.01c1.556,1.28,2.888,2.594,4.069,4.016
									c0.404,0.489,0.593,1.12,0.52,1.751c-0.07,0.63-0.398,1.204-0.904,1.588c-9.775,7.425-35.893,25.711-67.231,35.116
									C960.044,1059.97,957.837,1060.296,955.742,1060.296z M984.265,1006.775c-0.111,0-0.22,0-0.332,0.001
									c-8.173,0.868-15.319,4.255-21.011,10.054c-1.293,1.542-14.096,19.763-16.046,25.62c-1.49,4.473-1.066,8.084,1.225,10.443
									c2.649,2.73,7.68,3.496,12.828,1.952c28.631-8.593,52.859-24.819,63.704-32.829c-0.548-0.536-1.136-1.061-1.768-1.581
									C1022.498,1020.14,1005.566,1006.775,984.265,1006.775z"/>
							</g>
							
								<ellipse transform="matrix(0.799 -0.6013 0.6013 0.799 -423.3767 792.7785)" cx="974.207" cy="1029.707" rx="17.884" ry="6.858"/>
							<path d="M870.014,1249.486c-2.14,0-4.303-0.485-6.323-1.494c-6.098-3.049-9.161-10.019-7.282-16.573l3.177-11.083
								c4.099-14.299,9.134-28.481,14.962-42.155l40.031-93.922l1.579-8.953c4.44-36.152,28.799-56.964,29.836-57.832
								c37.943-33.873,79.396-0.986,79.807-0.65c0.005,0.003,0.009,0.006,0.014,0.009c5.553,4.569,8.371,9.532,8.371,14.749
								c0,7.002-5.11,11.749-6.676,13.038l-37.947,31.227c-14.858,11.429-17.721,16.797-22.465,25.689
								c-0.668,1.253-1.372,2.572-2.147,3.982l-43.382,78.913c-8.502,15.468-18.225,30.435-28.893,44.488l-11.368,14.971
								C878.555,1247.513,874.331,1249.486,870.014,1249.486z M984.449,1006.663c-11.038,0-23.355,3.567-35.411,14.329
								c-0.293,0.247-24.053,20.609-28.281,55.001l-1.643,9.337c-0.03,0.174-0.08,0.344-0.15,0.508l-40.135,94.167
								c-5.753,13.499-10.722,27.499-14.771,41.613l-3.177,11.082c-1.261,4.401,0.797,9.082,4.892,11.129
								c4.088,2.045,9.061,0.888,11.827-2.755l11.367-14.971c10.534-13.871,20.129-28.647,28.525-43.916l43.382-78.913
								c0.763-1.391,1.459-2.693,2.118-3.929c4.865-9.121,8.08-15.147,23.673-27.14l37.886-31.181
								c2.408-1.98,4.981-5.501,4.981-9.444c0-3.757-2.243-7.507-6.667-11.148
								C1021.778,1019.556,1005.428,1006.663,984.449,1006.663z"/>
						</g>
						<g>
							<path style="fill:#FFFFFF;" d="M966.829,1118.024c-4.577-7.282-10.858-3.56-10.858-3.56s-21.17,12.374-30.42,11.354
								c-15.999-1.763-16.06-18.993-15.68-25.385c0.189-3.178-2.535-5.842-5.691-5.429c-3.906,0.511-10.833,9.26-15.627,15.828
								c-9.343,12.801-5.042,31.754-10.67,41.252c-6.762,11.411-34.685,37.55-60.953,53.556
								c-31.933,19.458-53.498,1.983-76.569-16.878c-15.484-12.658-29.069-37.074-56.522-54.756
								c-19.153-12.336-82.966,33.977-65.095,52.183c20.095,20.471,101.168,115.588,154.664,103.366
								c42.721-9.76,109.642-85.688,127.186-103.532c10.86-8.218,24.362-7.458,33.322-11.105c9.952-4.05,18.607-5.856,20.823-31.546
								C955.144,1138.683,972.922,1127.717,966.829,1118.024z"/>
							<path d="M763.512,1292.962c-48.015,0.006-110.256-66.567-137.929-96.163c-3.467-3.708-6.337-6.778-8.5-8.979
								c-6.285-6.403-4.767-16.042,4.274-27.144c14.696-18.049,49.11-38.056,63.741-28.625
								c17.314,11.152,29.022,24.728,39.349,36.705c6.26,7.26,11.665,13.528,17.387,18.204
								c23.208,18.974,43.253,35.359,73.886,16.693c25.057-15.268,53.4-41.345,60.162-52.756c2.17-3.663,2.731-9.367,3.324-15.406
								c0.841-8.556,1.793-18.253,7.469-26.031c10.381-14.221,14.646-16.429,17.205-16.764c2.168-0.281,4.317,0.416,5.926,1.914
								c1.652,1.538,2.522,3.71,2.388,5.96c-0.577,9.716,1.318,21.58,13.612,22.935c7.007,0.785,23.292-7.717,28.993-11.051
								c2.833-1.679,9.427-2.947,14.001,4.33c4.981,7.924-2.577,16.124-7.578,21.55c-1.693,1.838-4.013,4.354-4.167,5.254
								c-2.199,25.527-11.07,29.043-20.461,32.764l-1.799,0.72c-3.417,1.391-7.328,2.154-11.47,2.964
								c-7.219,1.411-14.68,2.87-21.192,7.739c-2.179,2.22-5.099,5.311-8.623,9.043c-26.464,28.015-81.527,86.309-119.583,95.004
								C770.547,1292.596,767.065,1292.96,763.512,1292.962z M675.566,1134.223c-14.26,0-38.486,14.511-50.601,29.39
								c-4.253,5.225-10.504,14.893-4.56,20.946c2.181,2.222,5.078,5.32,8.577,9.063c29.172,31.2,97.446,104.272,143.906,93.666
								c36.679-8.38,93.131-68.143,117.236-93.662c3.617-3.829,6.603-6.988,8.809-9.233c0.08-0.081,0.164-0.156,0.255-0.224
								c7.403-5.601,15.819-7.246,23.242-8.697c3.915-0.765,7.609-1.487,10.609-2.707l1.84-0.736
								c8.707-3.451,15.585-6.178,17.541-28.854c0.207-2.378,2.377-4.733,5.378-7.991c5.553-6.023,9.916-11.379,7.06-15.921
								c-3.272-5.212-7.253-3.058-7.7-2.796c-2.247,1.312-22.097,12.733-31.862,11.666c-12.249-1.351-18.718-11.496-17.748-27.836
								c0.05-0.86-0.284-1.69-0.916-2.28c-0.345-0.323-1.075-0.842-2.15-0.704c-0.825,0.108-4.276,1.501-14.051,14.892
								c-4.928,6.753-5.776,15.39-6.596,23.743c-0.645,6.568-1.254,12.772-3.951,17.324c-7.178,12.112-35.711,38.495-61.743,54.358
								c-33.451,20.381-56.736,1.344-79.253-17.064c-6.035-4.934-11.831-11.654-17.966-18.769
								c-10.122-11.739-21.595-25.045-38.343-35.832C680.724,1134.768,678.331,1134.223,675.566,1134.223z"/>
						</g>
					</g>
					<g>
						<path style="fill:#FFFFFF;" d="M745.071,1173.73c-25.635-18.948-48.28-51.836-63.962-66.993
							c-16.53-15.976-42.572-26.244-65.375-29.168c-49.291-6.321-111.455-0.095-142.618,20.472
							c-39.254,25.908-33.465,67.594-25.203,86.436c4.242,9.676,20.325,50.1,24.524,61.86
							c26.094,73.081,14.318,130.341,7.943,178.964c-0.881,6.716,3.487,12.695,9.941,14.749
							c34.064,10.84,74.522,18.149,184.229-8.536c6.811-1.657,10.678-8.854,8.395-15.481
							c-28.42-82.475-11.076-109.398-1.569-154.154l12.512,6.824c21.611,7.962,41.696-25.994,50.615-43.79
							C756.318,1201.339,758.152,1183.399,745.071,1173.73z"/>
						<path d="M552.586,1452.256c-27.629,0.001-45.988-4.584-62.97-9.987c-7.803-2.483-12.549-9.584-11.543-17.268
							c0.604-4.617,1.259-9.311,1.924-14.09c6.41-46.018,13.676-98.176-9.75-163.79c-4.24-11.868-20.304-52.214-24.466-61.709
							c-9.109-20.773-13.871-62.961,26.055-89.311c32.76-21.62,97.343-26.846,144.195-20.838c25.5,3.27,51.057,14.689,66.697,29.801
							c5.612,5.425,11.892,12.839,19.166,21.424c13.21,15.593,28.181,33.264,44.561,45.371c13.374,9.886,13.417,27.582,0.127,54.098
							c-10.209,20.379-30.745,53.317-53.498,44.931c-0.107-0.04-0.209-0.086-0.309-0.141l-9.788-5.338
							c-1.475,6.597-3.099,12.838-4.676,18.9c-8.843,33.973-16.48,63.314,6.835,130.968c1.309,3.8,0.956,8.001-0.97,11.527
							c-1.911,3.493-5.217,6.035-9.075,6.973C618.908,1447.444,580.886,1452.255,552.586,1452.256z M577.657,1077.577
							c-38.452,0-79.564,6.77-103.258,22.407c-37.343,24.645-32.88,64.12-24.355,83.56c4.183,9.542,20.324,50.086,24.585,62.012
							c23.812,66.69,16.462,119.449,9.977,165.998c-0.663,4.766-1.316,9.448-1.92,14.052c-0.709,5.412,2.722,10.44,8.341,12.229
							c33.725,10.731,73.093,18.149,182.974-8.58c2.627-0.638,4.79-2.302,6.092-4.684c1.3-2.378,1.538-5.213,0.654-7.779
							c-23.773-68.981-15.596-100.396-6.939-133.656c1.804-6.936,3.672-14.109,5.292-21.74c0.154-0.718,0.636-1.322,1.304-1.63
							c0.668-0.306,1.443-0.279,2.086,0.072l12.358,6.74c1.841,0.658,3.681,0.963,5.51,0.963
							c18.075,0.003,35.125-29.821,42.067-43.669c12.108-24.16,12.522-39.95,1.263-48.27
							c-16.814-12.429-31.971-30.319-45.345-46.105c-7.191-8.49-13.403-15.823-18.85-21.086
							c-14.953-14.451-39.497-25.385-64.052-28.534C603.698,1078.372,590.833,1077.577,577.657,1077.577z"/>
					</g>
				</g>
				<g>
					<g>
						<path d="M643.141,937.161c1.45-4.473,0.808-9.336-1.706-13.31c-7.383-11.674-25.644-34.047-56.134-31.762
							c-42.98,3.221-57.876,23.188-64.62,57.456c-4.736,24.064,4.957,59.697,22.152,68.686c24.806,12.967,45.89-3.34,45.89-3.34
							l52.053-70.43L643.141,937.161z"/>
						<path d="M536.147,938.835l10.79-27.097c0,0-24.527-20.805-53.009-17.546c-29.006,3.318-61.939,31.148-57.845,81.681
							c2.127,26.255-19.977,39.372-40.921,58.952c-4.493,4.201-9.225,8.135-13.996,12.019c-34.427,28.025-28.474,58.27-28.474,58.27
							c1.677-6.098,5.818-11.377,10.759-15.778c-6.799,45.227,27.027,93.237,70.984,103.052
							c41.598,9.288,92.958-17.684,104.285-49.365c10.994-30.751,3.499-75.303-11.328-109.199
							C512.564,999.929,503.261,954.418,536.147,938.835z"/>
					</g>
					<g>
						<g>
							<path style="fill:#FFFFFF;" d="M640.991,933.799c0,0,4.339,14.872,1.203,25.751c-2.339,8.114,3.789,18.9,7.879,23.344
								c1.146,1.245,0.788,3.238-0.71,4.024l-5.253,2.6c-1.941,1.02-3.219,2.968-3.369,5.156c-0.52,7.596-2.195,25.173-5.58,29.505
								c-5.546,7.1-28.802-0.765-33.803-2.282c-0.516-0.156,0.029,54.065,0.029,54.065c-0.164,9.764-2.618,16.437-8.465,21.497
								c-13.037,11.281-54.477,15.365-57.599-3.406c-0.432-2.595-2.869-4.343-1.304-6.457c5.955-8.047,11.541-17.673,13.493-31.241
								c2.529-17.575,0.266-37.301,0.266-37.301s10.651,0.258,21.615-10.444c9.489-9.262,15.194-21.86,12.862-25.954
								c-5.337-9.368-8.808-18.395-1.111-25.409c7.36-6.707,14.537-1.3,17.919,2.749c4.656,5.574,25.115,2.179,33.917-13.184
								C641.782,931.448,640.991,933.799,640.991,933.799z"/>
							<path d="M560.002,1109.321c-5.539,0-10.788-0.714-15.051-2.253c-6.835-2.466-10.959-6.836-11.922-12.633
								c-0.1-0.598-0.425-1.232-0.768-1.902c-0.734-1.43-1.961-3.825-0.111-6.322c5.351-7.229,11.086-16.469,13.058-30.188
								c2.458-17.08,0.279-36.51,0.259-36.704c-0.077-0.668,0.139-1.337,0.593-1.835c0.452-0.497,0.997-0.783,1.774-0.755
								c0,0,0.005,0,0.009,0c0.336,0,10.009-0.106,19.924-9.784c9.523-9.293,13.842-20.723,12.465-23.137
								c-5.626-9.874-9.598-20.133-0.657-28.281c2.99-2.722,6.251-3.982,9.7-3.749c5.699,0.388,9.991,4.834,11.572,6.727
								c0.813,0.974,3.272,1.973,7.562,1.598c7.482-0.659,17.357-5.382,22.549-14.447c8.68-15.142,8.718-15.127,10.99-14.106
								c0.72,0.324,1.2,1.029,1.332,1.797c0.536,1.918,4.269,16.018,1.15,26.848c-1.968,6.821,3.224,16.638,7.353,21.124
								c1.038,1.127,1.481,2.639,1.22,4.149c-0.263,1.516-1.195,2.796-2.558,3.51l-5.303,2.625c-1.188,0.625-1.986,1.842-2.079,3.23
								c-0.52,7.583-2.152,25.765-6.067,30.779c-5.251,6.725-20.358,3.382-33.478-0.612c-0.145,8.312,0.023,33.564,0.198,50.94
								c-0.182,10.728-3.04,17.888-9.27,23.28C587.193,1105.496,572.822,1109.32,560.002,1109.321z M550.328,1021.182
								c0.518,5.832,1.54,21.235-0.511,35.505c-2.134,14.828-8.564,25.047-13.926,32.293c-0.066,0.305,0.282,0.983,0.514,1.432
								c0.443,0.868,0.997,1.948,1.216,3.26c0.682,4.097,3.681,7.131,8.914,9.021c13.735,4.954,36.532,0.223,44.868-6.991
								c5.212-4.51,7.503-10.426,7.662-19.777c-0.554-54.797-0.388-54.921,0.891-55.885c0.593-0.445,1.368-0.582,2.077-0.369
								l1.213,0.375c22.519,7.027,28.522,4.71,30.086,2.703c2.07-2.65,4.115-13.996,5.09-28.233c0.207-3.013,1.931-5.651,4.61-7.057
								l5.303-2.624l1.74-1.939l-1.711,1.576c-4.644-5.047-11.031-16.448-8.402-25.565c1.822-6.324,0.902-14.277-0.048-19.363
								c-1.12,1.869-2.697,4.558-4.915,8.426c-6.439,11.244-18.127,16.061-26.177,16.771c-5.221,0.453-9.432-0.724-11.542-3.251
								c-1.197-1.435-4.406-4.801-8.316-5.067c-2.152-0.148-4.208,0.685-6.248,2.546c-6.18,5.632-3.983,12.799,1.565,22.537
								c3.417,5.996-4.247,19.976-13.26,28.772C562.643,1018.451,554.397,1020.614,550.328,1021.182z"/>
						</g>
						<path d="M592.092,988.919c-7.005,0-12.931-5.209-16.589-14.779c-0.457-1.201,0.143-2.545,1.345-3.004
							c1.195-0.456,2.545,0.142,3.004,1.343c1.959,5.132,6.466,13.441,14.721,11.482c1.234-0.292,2.504,0.471,2.802,1.723
							c0.298,1.25-0.473,2.505-1.725,2.803C594.439,988.776,593.251,988.919,592.092,988.919z"/>
					</g>
				</g>
			</g>
		</g>
		<g>
			<path style="fill:#FFFFFF;" d="M2215.032,1235.147l-302.253,52.841l-299.829-52.529c-0.422-0.074-0.422-0.684,0-0.758
				l303.257-53.1L2215.032,1235.147z"/>
			<polygon points="1800.998,1202.559 2094.906,1255.602 2028.919,1267.139 1734.851,1213.969 			"/>
			<g>
				<polygon style="fill:#FFFFFF;" points="1912.838,1735.814 1912.838,1287.548 2216.276,1234.96 2216.276,1681.996 				"/>
				<polygon points="2031.517,1316.43 2031.517,1266.61 2097.596,1255.158 2097.596,1304.71 				"/>
				<path d="M1912.838,1738.142c-0.543,0-1.072-0.19-1.495-0.543c-0.527-0.443-0.832-1.095-0.832-1.784v-448.267
					c0-1.131,0.813-2.099,1.929-2.293l303.439-52.589c0.679-0.117,1.37,0.07,1.895,0.512c0.527,0.442,0.829,1.094,0.829,1.78
					v447.037c0,1.128-0.809,2.094-1.92,2.292l-303.439,53.818C1913.108,1738.13,1912.972,1738.142,1912.838,1738.142z
					 M1915.164,1289.507v443.533l298.785-52.993v-442.323L1915.164,1289.507z"/>
			</g>
			<g>
				<g>
					<g>
						<polygon style="fill:#FFFFFF;" points="1912.838,1735.814 1912.838,1287.548 1612.031,1234.893 1612.031,1682.257 						"/>
						<path d="M1912.838,1738.142c-0.136,0-0.273-0.011-0.407-0.036l-300.81-53.558c-1.109-0.198-1.918-1.162-1.918-2.29v-447.363
							c0-0.688,0.305-1.34,0.829-1.781c0.527-0.443,1.22-0.634,1.9-0.51l300.807,52.655c1.113,0.194,1.925,1.161,1.925,2.291
							v448.267c0,0.688-0.304,1.342-0.832,1.784C1913.91,1737.952,1913.381,1738.142,1912.838,1738.142z M1614.357,1680.307
							l296.154,52.73v-443.534l-296.154-51.84V1680.307z"/>
					</g>
				</g>
				<g>
					<path d="M1837.339,1533.831c-0.136,0-0.273-0.011-0.407-0.036l-163.724-29.136c-1.111-0.198-1.92-1.162-1.92-2.29V1325.31
						c0-0.687,0.304-1.338,0.829-1.78c0.525-0.442,1.22-0.629,1.895-0.512l163.724,28.47c1.116,0.194,1.929,1.161,1.929,2.293
						v177.724c0,0.688-0.305,1.342-0.832,1.784C1838.411,1533.641,1837.882,1533.831,1837.339,1533.831z M1675.941,1500.419
						l159.071,28.308v-172.989l-159.071-27.661V1500.419z"/>
					<g>
						<path d="M1695.627,1484.231c-1.286,0-2.327-1.042-2.327-2.327v-130.684c0-1.285,1.041-2.327,2.327-2.327
							s2.327,1.042,2.327,2.327v130.684C1697.954,1483.189,1696.913,1484.231,1695.627,1484.231z"/>
						<path d="M1715.683,1488.506c-1.286,0-2.327-1.042-2.327-2.327v-130.685c0-1.285,1.041-2.327,2.327-2.327
							c1.286,0,2.327,1.042,2.327,2.327v130.685C1718.01,1487.464,1716.969,1488.506,1715.683,1488.506z"/>
						<path d="M1738.068,1488.127c-1.286,0-2.327-1.042-2.327-2.327v-121.377c0-1.285,1.041-2.327,2.327-2.327
							c1.286,0,2.327,1.042,2.327,2.327V1485.8C1740.395,1487.085,1739.354,1488.127,1738.068,1488.127z"/>
						<path d="M1762.778,1497.055c-1.286,0-2.327-1.042-2.327-2.327v-130.685c0-1.285,1.041-2.327,2.327-2.327
							s2.327,1.042,2.327,2.327v130.685C1765.105,1496.013,1764.064,1497.055,1762.778,1497.055z"/>
						<path d="M1788.562,1498.747c-1.286,0-2.327-1.042-2.327-2.327v-123.213c0-1.285,1.041-2.327,2.327-2.327
							c1.286,0,2.327,1.042,2.327,2.327v123.213C1790.889,1497.705,1789.849,1498.747,1788.562,1498.747z"/>
						<path d="M1815.971,1507.552c-1.286,0-2.327-1.042-2.327-2.327v-133.012c0-1.285,1.041-2.327,2.327-2.327
							c1.286,0,2.327,1.042,2.327,2.327v133.012C1818.298,1506.511,1817.257,1507.552,1815.971,1507.552z"/>
					</g>
				</g>
			</g>
			<path d="M1912.779,1290.315c-0.134,0-0.268-0.011-0.402-0.035l-299.828-52.529c-1.297-0.226-2.243-1.35-2.243-2.671
				c0-1.32,0.945-2.444,2.245-2.67l303.255-53.1c0.273-0.048,0.545-0.046,0.813,0.001l298.824,53.546
				c1.111,0.199,1.918,1.167,1.916,2.295c-0.002,1.129-0.813,2.093-1.927,2.287l-302.253,52.841
				C1913.047,1290.303,1912.913,1290.315,1912.779,1290.315z M1624.272,1235.081l288.506,50.545l288.904-50.508l-285.48-51.154
				L1624.272,1235.081z"/>
		</g>
		<g>
			<path style="fill:#FFFFFF;" d="M2091.718,1656.276l-302.253,52.841l-299.829-52.529c-0.422-0.074-0.422-0.684,0-0.758
				l303.257-53.1L2091.718,1656.276z"/>
			<polygon points="1677.684,1623.688 1971.592,1676.731 1905.605,1688.268 1611.537,1635.098 			"/>
			<g>
				<polygon style="fill:#FFFFFF;" points="1789.523,2156.944 1789.523,1708.677 2092.962,1656.089 2092.962,2103.125 				"/>
				<polygon points="1908.203,1737.559 1908.203,1687.739 1974.282,1676.287 1974.282,1725.839 				"/>
				<path d="M1789.524,2159.271c-0.543,0-1.073-0.19-1.495-0.543c-0.527-0.443-0.832-1.095-0.832-1.784v-448.267
					c0-1.132,0.813-2.099,1.929-2.293l303.439-52.589c0.679-0.113,1.37,0.07,1.895,0.512c0.527,0.442,0.829,1.094,0.829,1.78
					v447.037c0,1.128-0.809,2.094-1.92,2.292l-303.439,53.818C1789.794,2159.26,1789.658,2159.271,1789.524,2159.271z
					 M1791.85,1710.636v443.533l298.785-52.993v-442.323L1791.85,1710.636z"/>
			</g>
			<g>
				<g>
					<polygon style="fill:#FFFFFF;" points="1789.523,2156.944 1789.523,1708.677 1488.717,1656.022 1488.717,2103.387 					"/>
					<path d="M1789.524,2159.271c-0.136,0-0.273-0.011-0.407-0.036l-300.81-53.558c-1.109-0.198-1.918-1.162-1.918-2.291v-447.363
						c0-0.687,0.305-1.339,0.829-1.781c0.527-0.442,1.222-0.63,1.899-0.51l300.807,52.655c1.113,0.194,1.925,1.161,1.925,2.292
						v448.267c0,0.688-0.304,1.342-0.832,1.784C1790.596,2159.081,1790.067,2159.271,1789.524,2159.271z M1491.043,2101.437
						l296.154,52.73v-443.534l-296.154-51.84V2101.437z"/>
				</g>
				<g>
					<path d="M1712.802,1946.356c-0.136,0-0.273-0.011-0.407-0.036l-163.724-29.135c-1.111-0.198-1.92-1.162-1.92-2.29v-177.058
						c0-0.688,0.304-1.338,0.829-1.78c0.525-0.442,1.222-0.625,1.895-0.512l163.724,28.469c1.116,0.194,1.929,1.161,1.929,2.293
						v177.724c0,0.688-0.305,1.342-0.832,1.784C1713.875,1946.166,1713.345,1946.356,1712.802,1946.356z M1551.405,1912.945
						l159.071,28.306v-172.989l-159.071-27.66V1912.945z"/>
					<g>
						<path d="M1571.09,1896.757c-1.286,0-2.327-1.042-2.327-2.327v-130.685c0-1.285,1.041-2.327,2.327-2.327
							s2.327,1.042,2.327,2.327v130.685C1573.417,1895.715,1572.376,1896.757,1571.09,1896.757z"/>
						<path d="M1591.149,1901.031c-1.286,0-2.327-1.042-2.327-2.327V1768.02c0-1.285,1.041-2.327,2.327-2.327
							s2.327,1.042,2.327,2.327v130.684C1593.476,1899.989,1592.435,1901.031,1591.149,1901.031z"/>
						<path d="M1611.205,1905.306c-1.286,0-2.327-1.042-2.327-2.327v-130.685c0-1.285,1.041-2.327,2.327-2.327
							s2.327,1.042,2.327,2.327v130.685C1613.532,1904.264,1612.491,1905.306,1611.205,1905.306z"/>
						<path d="M1631.264,1909.58c-1.286,0-2.327-1.042-2.327-2.327v-130.684c0-1.285,1.041-2.327,2.327-2.327
							c1.286,0,2.327,1.042,2.327,2.327v130.684C1633.59,1908.538,1632.55,1909.58,1631.264,1909.58z"/>
						<path d="M1659.373,1908.946c-1.286,0-2.327-1.042-2.327-2.327v-123.213c0-1.285,1.041-2.327,2.327-2.327
							s2.327,1.042,2.327,2.327v123.213C1661.699,1907.904,1660.659,1908.946,1659.373,1908.946z"/>
						<path d="M1691.437,1922.404c-1.286,0-2.327-1.042-2.327-2.327v-130.684c0-1.285,1.041-2.327,2.327-2.327
							c1.286,0,2.327,1.042,2.327,2.327v130.684C1693.764,1921.362,1692.723,1922.404,1691.437,1922.404z"/>
					</g>
				</g>
			</g>
			<path d="M1789.464,1711.444c-0.134,0-0.268-0.011-0.402-0.035l-299.828-52.529c-1.297-0.226-2.243-1.35-2.243-2.671
				c0-1.32,0.945-2.444,2.245-2.67l303.255-53.1c0.27-0.048,0.543-0.046,0.813,0.001l298.824,53.546
				c1.111,0.199,1.918,1.167,1.915,2.295c-0.002,1.129-0.813,2.093-1.927,2.287l-302.253,52.841
				C1789.733,1711.432,1789.599,1711.444,1789.464,1711.444z M1500.958,1656.21l288.506,50.545l288.904-50.508l-285.48-51.154
				L1500.958,1656.21z"/>
		</g>
		<g>
			<g>
				<g>
					<path d="M862.91,780.783V445.915c0-11.253-8.104-20.872-19.194-22.781l-491.943-84.924c-8.104-1.395-16.407-1.119-24.401,0.811
						l-26.752,9.75l-12.41,346.036c-0.573,15.968,10.717,29.914,26.455,32.677l473.55,83.154c11.467,2.014,16.122,3.84,34.487-1.486
						l21.001-5.585C855.386,800.393,862.91,792.041,862.91,780.783z"/>
					<path d="M803.215,814.982c-4.235,0-7.805-0.66-12.172-1.468c-1.023-0.189-2.093-0.386-3.229-0.586l-473.55-83.154
						c-16.789-2.947-28.988-18.016-28.377-35.051l12.408-346.036c0.034-0.948,0.638-1.779,1.527-2.103l26.752-9.75
						c0.082-0.03,0.166-0.056,0.252-0.076c8.35-2.017,16.875-2.301,25.341-0.842l491.943,84.925
						c12.24,2.106,21.124,12.651,21.124,25.073v334.868c0,12.113-7.821,21.47-20.922,25.028l-21.013,5.588
						C814.104,814.066,808.201,814.982,803.215,814.982z M302.89,350.42l-12.354,344.469c-0.527,14.728,10.018,27.754,24.532,30.303
						l473.55,83.154c1.152,0.202,2.234,0.402,3.27,0.593c9.13,1.688,14.16,2.617,30.167-2.022l21.051-5.599
						c10.938-2.972,17.475-10.65,17.475-20.535V445.915c0-10.15-7.259-18.767-17.261-20.488l-491.943-84.925
						c-7.791-1.339-15.637-1.09-23.333,0.75L302.89,350.42z"/>
				</g>
				<g>
					<path style="fill:#FFFFFF;" d="M825.142,787.835V454.129c0-10.781-7.764-19.996-18.389-21.826l-493.636-84.991
						c-13.534-2.33-25.905,8.092-25.905,21.826v334.938c0,10.749,7.718,19.946,18.304,21.811l490.464,86.42
						C811.195,814.988,825.142,803.283,825.142,787.835z"/>
					<path d="M800.316,815.013c-1.575,0-3.161-0.136-4.74-0.415l-490.464-86.419c-11.72-2.065-20.227-12.203-20.227-24.103V369.139
						c0-7.233,3.172-14.056,8.705-18.717c5.533-4.66,12.79-6.632,19.922-5.402l493.636,84.991
						c11.774,2.028,20.32,12.172,20.32,24.119v333.705c0,8.052-3.538,15.64-9.707,20.817
						C812.822,812.797,806.651,815.013,800.316,815.013z M309.346,349.316c-4.637,0-9.15,1.626-12.758,4.665
						c-4.478,3.774-7.048,9.299-7.048,15.158v334.938c0,9.638,6.889,17.848,16.382,19.52l490.464,86.419
						c6.573,1.16,13.276-0.638,18.384-4.928c5.115-4.29,8.046-10.578,8.046-17.252V454.13c0-9.676-6.921-17.891-16.457-19.534
						l-493.636-84.991C311.597,349.412,310.468,349.316,309.346,349.316z"/>
				</g>
				<path d="M760.46,770.483c-1.432,0-2.872-0.125-4.306-0.377l-408.523-71.982c-11.817-2.082-20.397-12.306-20.397-24.309V419.493
					c0-7.296,3.199-14.176,8.777-18.876c5.58-4.7,12.904-6.691,20.093-5.449l408.523,70.337
					c11.874,2.044,20.495,12.274,20.495,24.324v255.968c0,7.314-3.213,14.206-8.816,18.907
					C771.819,768.47,766.214,770.483,760.46,770.483z M351.901,399.462c-4.685,0-9.245,1.643-12.89,4.714
					c-4.526,3.815-7.123,9.398-7.123,15.318v254.323c0,9.74,6.962,18.036,16.553,19.726l408.523,71.982
					c5.844,1.032,11.806-0.567,16.35-4.383c4.547-3.816,7.155-9.408,7.155-15.343V489.83c0-9.778-6.994-18.079-16.632-19.739
					l-408.523-70.337C354.177,399.558,353.034,399.462,351.901,399.462z"/>
			</g>
			<g>
				<path d="M462.345,585.117c-1.009,0-2.022-0.087-3.036-0.266l-76.801-13.533c-8.336-1.469-14.387-8.68-14.387-17.144v-84.34
					c0-5.146,2.256-9.999,6.192-13.315c3.935-3.315,9.109-4.716,14.171-3.842l76.801,13.223c8.375,1.442,14.455,8.658,14.455,17.157
					v84.649c0,5.159-2.265,10.02-6.217,13.335C470.359,583.697,466.406,585.117,462.345,585.117z M385.519,457.075
					c-2.981,0-5.887,1.046-8.207,3.003c-2.883,2.429-4.538,5.985-4.538,9.755v84.34c0,6.203,4.433,11.486,10.543,12.561
					l76.801,13.533c3.72,0.658,7.519-0.361,10.413-2.791c2.895-2.43,4.556-5.992,4.556-9.771v-84.649
					c0-6.228-4.456-11.514-10.593-12.572l-76.801-13.223C386.969,457.137,386.242,457.075,385.519,457.075z"/>
				<path d="M452.301,538.386v-34.048c0-6.492-4.675-12.041-11.073-13.142l-30.068-5.177c-8.15-1.403-15.598,4.873-15.598,13.142
					v33.927c0,6.472,4.647,12.01,11.021,13.133l30.068,5.298C444.816,552.958,452.301,546.677,452.301,538.386z"/>
			</g>
			<g>
				<path d="M713.216,553.451c-1.334,0-2.672-0.116-4.008-0.351l-160.464-28.273c-10.999-1.938-18.984-11.452-18.984-22.623
					c0-6.79,2.979-13.194,8.171-17.569c5.192-4.376,12.011-6.225,18.698-5.07l160.464,27.628
					c11.052,1.902,19.075,11.423,19.075,22.639v0.646c0,6.807-2.99,13.221-8.205,17.597
					C723.786,551.578,718.569,553.451,713.216,553.451z M552.718,483.882c-4.285,0-8.455,1.503-11.788,4.31
					c-4.142,3.489-6.517,8.597-6.517,14.011c0,8.908,6.367,16.495,15.139,18.04l160.464,28.273
					c5.342,0.942,10.797-0.519,14.953-4.008c4.158-3.489,6.544-8.604,6.544-14.032v-0.646c0-8.943-6.398-16.536-15.212-18.053
					l-160.464-27.628C554.799,483.971,553.754,483.882,552.718,483.882z"/>
				<path d="M713.211,629.569c-1.304,0-2.617-0.111-3.926-0.338l-92.127-15.908c-11.047-1.908-19.063-11.428-19.063-22.637
					c0-6.839,2.961-13.229,8.123-17.602c5.162-4.372,11.947-6.24,18.622-5.132l92.129,15.348
					c11.124,1.853,19.197,11.382,19.197,22.659v0.636c0,6.791-2.979,13.195-8.173,17.57
					C723.813,627.685,718.582,629.569,713.211,629.569z M621.055,572.292c-4.303,0-8.491,1.516-11.829,4.343
					c-4.117,3.487-6.478,8.582-6.478,13.977c0,9.013,6.394,16.605,15.201,18.126l92.127,15.908
					c5.349,0.924,10.779-0.552,14.919-4.04c4.142-3.489,6.519-8.596,6.519-14.011v-0.636c0-8.992-6.437-16.591-15.307-18.069
					l-92.129-15.348C623.07,572.375,622.059,572.292,621.055,572.292z"/>
				<path d="M713.209,707.365c-1.281,0-2.57-0.108-3.856-0.326L546.01,679.334c-11.086-1.88-19.131-11.406-19.131-22.649
					c0-6.806,2.958-13.192,8.114-17.565c5.156-4.373,11.938-6.251,18.611-5.142l163.343,27.057
					c11.138,1.844,19.22,11.375,19.22,22.662v0.693c0,6.779-2.97,13.175-8.148,17.549
					C723.836,705.473,718.594,707.365,713.209,707.365z M549.839,638.321c-4.306,0-8.498,1.517-11.836,4.348
					c-4.112,3.487-6.471,8.58-6.471,13.971c0,9.01,6.417,16.606,15.255,18.106l163.343,27.705
					c5.326,0.902,10.754-0.579,14.885-4.067c4.131-3.488,6.498-8.589,6.498-13.994v-0.693c0-9.001-6.446-16.601-15.326-18.073
					l-163.343-27.057C551.843,638.402,550.839,638.321,549.839,638.321z"/>
			</g>
		</g>
		<path d="M906.834,1770.222c-17.198,0-31.188-13.99-31.188-31.186s13.99-31.186,31.188-31.186c17.196,0,31.185,13.99,31.185,31.186
			S924.03,1770.222,906.834,1770.222z M906.834,1712.503c-14.63,0-26.534,11.903-26.534,26.533s11.904,26.533,26.534,26.533
			c14.63,0,26.532-11.903,26.532-26.533S921.465,1712.503,906.834,1712.503z"/>
	</g>
</g>
</svg>
