<?xml version="1.0" encoding="utf-8"?>
<!-- Generator: Adobe Illustrator 27.5.0, SVG Export Plug-In . SVG Version: 6.00 Build 0)  -->
<svg version="1.1" id="Illustration" xmlns="http://www.w3.org/2000/svg" xmlns:xlink="http://www.w3.org/1999/xlink" x="0px"
	 y="0px" viewBox="0 0 2500 2500" style="enable-background:new 0 0 2500 2500;" xml:space="preserve">
<g id="Warehouse_voice_tasking_1_">
	<g>
		<g>
			<path d="M690.202,387.111v788.862h-21.928V395.277C675.598,392.393,682.922,389.662,690.202,387.111z"/>
			<rect x="454.185" y="865.486" width="1227.689" height="22.23"/>
			<path d="M1681.869,587.517v22.237H454.175v-1.996c1.798-6.814,3.884-13.561,6.258-20.241H1681.869z"/>
			<path d="M938.922,335v836.558h-21.905V337.198C924.275,336.376,931.576,335.665,938.922,335z"/>
			<path d="M1187.666,340.947v772.974h-21.905V338.307C1173.063,339.105,1180.364,339.993,1187.666,340.947z"/>
			<path d="M1436.41,399.827v776.146h-21.905V392.436C1421.828,394.833,1429.13,397.297,1436.41,399.827z"/>
		</g>
		<g>
			<rect x="719.471" y="511.801" style="fill:#FFFFFF;" width="73.782" height="74.984"/>
			<path d="M793.253,589.003h-73.782c-1.226,0-2.219-0.993-2.219-2.219v-74.983c0-1.227,0.994-2.219,2.219-2.219h73.782
				c1.226,0,2.219,0.993,2.219,2.219v74.983C795.472,588.01,794.479,589.003,793.253,589.003z M721.69,584.564h69.344V514.02H721.69
				V584.564z"/>
		</g>
		<g>
			<rect x="816.078" y="511.801" style="fill:#FFFFFF;" width="73.782" height="74.984"/>
			<path d="M889.86,589.003h-73.782c-1.226,0-2.219-0.993-2.219-2.219v-74.983c0-1.227,0.994-2.219,2.219-2.219h73.782
				c1.226,0,2.219,0.993,2.219,2.219v74.983C892.08,588.01,891.086,589.003,889.86,589.003z M818.297,584.564h69.344V514.02h-69.344
				V584.564z"/>
		</g>
		<g>
			<g>
				<rect x="709.685" y="675.184" style="fill:#FFFFFF;" width="187.462" height="190.516"/>
				<path d="M897.147,867.918H709.684c-1.226,0-2.219-0.993-2.219-2.219V675.185c0-1.227,0.994-2.219,2.219-2.219h187.463
					c1.226,0,2.219,0.993,2.219,2.219v190.514C899.366,866.925,898.372,867.918,897.147,867.918z M711.904,863.479h183.024V677.404
					H711.904V863.479z"/>
			</g>
			<g>
				<path d="M859.14,829.292H747.692c-1.226,0-2.219-0.993-2.219-2.219V713.81c0-1.227,0.994-2.219,2.219-2.219H859.14
					c1.226,0,2.219,0.993,2.219,2.219v113.262C861.359,828.299,860.365,829.292,859.14,829.292z M749.911,824.853H856.92V716.03
					H749.911V824.853z"/>
				<path d="M843.013,813.512h-79.194c-1.226,0-2.219-0.993-2.219-2.219v-13.604c0-1.227,0.994-2.219,2.219-2.219h79.194
					c1.226,0,2.219,0.993,2.219,2.219v13.604C845.232,812.519,844.238,813.512,843.013,813.512z M766.038,809.073h74.755v-9.166
					h-74.755V809.073z"/>
				<g>
					<path d="M788.795,785.087h-13.386c-1.226,0-2.219-0.993-2.219-2.219v-35.436h-8.824c-0.894,0-1.701-0.537-2.047-1.361
						c-0.346-0.826-0.162-1.777,0.465-2.414l17.736-18.026c0.834-0.85,2.33-0.85,3.164,0l17.737,18.026
						c0.627,0.637,0.81,1.589,0.465,2.414c-0.346,0.824-1.153,1.361-2.047,1.361h-8.824v35.436
						C791.014,784.095,790.02,785.087,788.795,785.087z M777.628,780.649h8.948v-35.436c0-1.227,0.994-2.219,2.219-2.219h5.747
						l-12.44-12.642l-12.439,12.642h5.747c1.226,0,2.219,0.993,2.219,2.219V780.649z"/>
					<path d="M831.423,785.087h-13.385c-1.226,0-2.219-0.993-2.219-2.219v-35.436h-8.824c-0.894,0-1.701-0.537-2.047-1.361
						c-0.346-0.826-0.163-1.777,0.465-2.414l17.736-18.026c0.834-0.85,2.33-0.85,3.164,0l17.736,18.026
						c0.628,0.637,0.811,1.589,0.465,2.414c-0.346,0.824-1.153,1.361-2.047,1.361h-8.824v35.436
						C833.642,784.095,832.648,785.087,831.423,785.087z M820.257,780.649h8.947v-35.436c0-1.227,0.994-2.219,2.219-2.219h5.747
						l-12.439-12.642l-12.439,12.642h5.747c1.226,0,2.219,0.993,2.219,2.219V780.649z"/>
				</g>
			</g>
		</g>
		<g>
			<rect x="989.887" y="696.681" style="fill:#FFFFFF;" width="169.613" height="172.375"/>
			<path d="M1159.5,871.275H989.888c-1.226,0-2.219-0.993-2.219-2.219V696.682c0-1.227,0.994-2.219,2.219-2.219H1159.5
				c1.226,0,2.219,0.993,2.219,2.219v172.374C1161.719,870.282,1160.726,871.275,1159.5,871.275z M992.107,866.836h165.174V698.901
				H992.107V866.836z"/>
		</g>
		<g>
			<g>
				<rect x="1205.38" y="399.993" style="fill:#FFFFFF;" width="187.462" height="190.516"/>
				<path d="M1392.843,592.729H1205.38c-1.226,0-2.219-0.993-2.219-2.219V399.993c0-1.227,0.994-2.219,2.219-2.219h187.463
					c1.226,0,2.219,0.993,2.219,2.219v190.516C1395.062,591.736,1394.068,592.729,1392.843,592.729z M1207.6,588.29h183.024V402.212
					H1207.6V588.29z"/>
			</g>
			<g>
				<path d="M1354.47,553.732h-110.719c-1.226,0-2.219-0.993-2.219-2.219V438.99c0-1.227,0.994-2.219,2.219-2.219h110.719
					c1.226,0,2.219,0.993,2.219,2.219v112.523C1356.69,552.739,1355.696,553.732,1354.47,553.732z M1245.971,549.293h106.28V441.209
					h-106.28V549.293z"/>
				<g>
					<path d="M1292.289,537.865c-4.986,0-9.042-4.105-9.042-9.153v-5.431c0-1.227,0.994-2.219,2.219-2.219s2.219,0.993,2.219,2.219
						v5.431c0,2.599,2.065,4.714,4.603,4.714c2.538,0,4.603-2.115,4.603-4.714v-73.856c0-1.227,0.994-2.219,2.219-2.219
						c1.226,0,2.219,0.993,2.219,2.219v73.856C1301.331,533.76,1297.275,537.865,1292.289,537.865z"/>
					<g>
						<path style="fill:#FFFFFF;" d="M1334.631,496.942c1.798,0,3.184-1.606,2.967-3.42c-1.906-15.9-18.41-28.327-38.487-28.327
							c-20.077,0-36.581,12.427-38.487,28.327c-0.218,1.814,1.168,3.42,2.967,3.42H1334.631z"/>
						<path d="M1334.632,499.161h-71.041c-1.476,0-2.888-0.637-3.874-1.747c-1.005-1.131-1.477-2.646-1.297-4.155
							c2.07-17.265,19.563-30.284,40.691-30.284c21.127,0,38.621,13.019,40.689,30.282c0.182,1.508-0.291,3.023-1.294,4.155
							C1337.521,498.524,1336.109,499.161,1334.632,499.161z M1299.111,467.414c-18.883,0-34.481,11.337-36.284,26.372
							c-0.04,0.34,0.114,0.572,0.209,0.681c0.104,0.117,0.284,0.256,0.555,0.256h71.041c0.271,0,0.451-0.139,0.555-0.256
							c0.095-0.108,0.248-0.338,0.208-0.681C1333.592,478.751,1317.993,467.414,1299.111,467.414z"/>
					</g>
				</g>
			</g>
		</g>
	</g>
	<g>
		<g>
			<path style="fill:#FFFFFF;" d="M460.988,956.436l1548.321,261.526c72.107,12.206,114.74,61.832,127.879,118.247
				c-0.021,0.178,0,0.377,0.044,0.576c-3.351,39.172-9.276,78.477-17.977,117.67c-0.887,2.241-1.664,4.616-2.263,7.167
				c-10.787,17.135-25.079,32.315-42.944,44.298c-17.866,11.985-39.26,20.774-64.228,25.08
				c-33.135,5.726-33.112,53.329,0.022,59.034l63.096,11.452c-35.088,85-81.916,161.435-137.622,228.613l-326.398-57.126
				c-94.211-16.045-141.438-91.814-141.438-167.603c0-75.302,46.651-150.605,140.151-167.272
				c20.595-3.684,20.484-33.268-0.133-36.775L451.134,1204.471L460.988,956.436z"/>
			<path d="M1935.316,1832.32c-0.127,0-0.255-0.011-0.382-0.032l-326.398-57.126c-98.97-16.855-143.275-97.423-143.275-169.79
				c0-71.749,43.901-151.975,141.981-169.457c9.406-1.684,13.587-9.385,13.558-16.272c-0.029-6.877-4.269-14.53-13.674-16.131
				L450.761,1206.657c-1.208-0.204-2.021-1.35-1.815-2.56c0.206-1.207,1.35-2.003,2.561-1.816l1156.364,196.856
				c11.945,2.031,17.331,11.753,17.368,20.486c0.038,8.745-5.272,18.524-17.216,20.661
				c-95.553,17.033-138.323,95.187-138.323,165.087c0,70.503,43.163,148.993,139.592,165.414l325.137,56.907
				c56.044-67.785,101.589-143.303,135.406-224.513l-60.389-10.96c-18.421-3.173-26.68-18.205-26.684-31.695
				s8.243-28.524,26.681-31.71c23.666-4.081,44.986-12.404,63.369-24.736c16.936-11.359,31.1-25.936,42.108-43.329
				c0.562-2.323,1.286-4.601,2.207-6.946c8.479-38.232,14.491-77.564,17.87-116.923c-0.021-0.152-0.032-0.301-0.036-0.447
				c-14.532-61.918-61.624-105.382-126.022-116.283L460.618,958.625c-1.208-0.204-2.023-1.35-1.818-2.56
				c0.204-1.207,1.349-2.016,2.558-1.818l1548.321,261.526c66.321,11.227,114.796,56.062,129.671,119.933
				c0.058,0.251,0.073,0.514,0.041,0.772c0.049,0.221,0.072,0.273,0.053,0.496c-3.396,39.705-9.46,79.393-18.022,117.963
				c-0.025,0.115-0.06,0.228-0.103,0.336c-0.92,2.323-1.628,4.564-2.165,6.857c-0.056,0.238-0.152,0.468-0.283,0.676
				c-11.368,18.058-26.033,33.184-43.586,44.957c-18.905,12.683-40.803,21.238-65.087,25.425
				c-15.892,2.746-23.002,15.707-22.997,27.334c0.003,11.63,7.122,24.588,23.018,27.326l63.117,11.454
				c0.66,0.121,1.23,0.533,1.551,1.12c0.322,0.589,0.36,1.292,0.104,1.912c-34.256,82.985-80.674,160.094-137.965,229.183
				C1936.599,1832.03,1935.971,1832.32,1935.316,1832.32z"/>
		</g>
		<g>
			<path style="fill:#FFFFFF;" d="M1493.372,2152.529c136.099-28.809,215.461-101.202,362.234-237.984l-900.056,206.85
				L1493.372,2152.529z"/>
			<path d="M1493.37,2154.749c-1.026,0-1.948-0.715-2.169-1.76c-0.254-1.199,0.513-2.378,1.712-2.631
				c135.736-28.732,214.82-101.056,355.129-231.797l-891.994,204.998c-1.194,0.284-2.384-0.47-2.66-1.667
				c-0.274-1.194,0.471-2.384,1.666-2.659l900.056-206.852c0.977-0.232,1.987,0.236,2.458,1.123c0.47,0.886,0.287,1.979-0.448,2.664
				c-144.697,134.851-224.404,209.134-363.287,238.533C1493.676,2154.733,1493.521,2154.749,1493.37,2154.749z"/>
		</g>
	</g>
	<g>
		<g>
			<path style="fill:#FFFFFF;" d="M1371.391,1808.131l-20.258-9.884c-3.269-1.595-5.366-4.903-5.301-8.513
				c0.068-3.814-0.023-7.609-0.273-11.375c-0.239-3.592,1.68-6.989,4.851-8.746l19.692-10.911c3.878-2.148,5.737-6.672,4.477-10.892
				l-5.129-17.178c-1.26-4.221-5.303-7.011-9.735-6.721l-22.562,1.482c-3.648,0.24-7.119-1.613-8.9-4.776
				c-1.843-3.272-3.818-6.469-5.923-9.582c-2.035-3.01-2.124-6.916-0.251-10.029l11.581-19.25c2.274-3.782,1.603-8.619-1.618-11.649
				l-13.111-12.333c-3.221-3.03-8.131-3.443-11.824-0.995l-18.755,12.435c-3.037,2.014-6.972,2.131-10.111,0.28
				c-3.239-1.911-6.574-3.696-9.997-5.354c-3.291-1.594-5.347-4.938-5.296-8.568l0.318-22.383c0.062-4.401-2.961-8.257-7.279-9.284
				l-17.579-4.182c-4.319-1.027-8.781,1.048-10.744,4.997l-9.981,20.079c-1.611,3.24-4.949,5.319-8.593,5.257
				c-3.849-0.066-7.678,0.026-11.478,0.275c-3.625,0.238-7.052-1.662-8.824-4.804l-11.002-19.51
				c-2.167-3.842-6.73-5.682-10.99-4.432l-17.336,5.09c-4.26,1.25-7.077,5.258-6.785,9.65l1.486,22.354
				c0.239,3.596-1.597,7.044-4.774,8.799c-3.337,1.844-6.596,3.823-9.769,5.931c-3.021,2.008-6.953,2.063-10.077,0.219
				l-19.418-11.466c-3.815-2.253-8.697-1.585-11.755,1.608l-12.45,12.997c-3.059,3.193-3.478,8.059-1.009,11.717l12.54,18.581
				c2.031,3.008,2.147,6.908,0.278,10.019c-1.929,3.211-3.732,6.517-5.406,9.91c-1.609,3.263-4.985,5.301-8.649,5.251l-22.586-0.307
				c-4.441-0.06-8.333,2.937-9.372,7.217l-4.226,17.422c-1.038,4.28,1.054,8.701,5.038,10.645l20.258,9.883
				c3.269,1.595,5.366,4.903,5.301,8.514c-0.068,3.814,0.023,7.608,0.273,11.374c0.239,3.592-1.68,6.989-4.851,8.746l-19.691,10.911
				c-3.878,2.148-5.737,6.672-4.477,10.892l5.129,17.179c1.26,4.22,5.303,7.011,9.735,6.72l22.558-1.481
				c3.629-0.238,7.107,1.58,8.877,4.727c1.86,3.306,3.855,6.535,5.982,9.679c2.025,2.993,2.079,6.89,0.216,9.986l-11.578,19.246
				c-2.275,3.782-1.603,8.62,1.618,11.649l13.11,12.332c3.221,3.03,8.131,3.443,11.824,0.995l18.754-12.435
				c3.037-2.013,6.972-2.131,10.11-0.28c3.239,1.911,6.575,3.696,9.999,5.354c3.292,1.594,5.347,4.938,5.296,8.569l-0.318,22.383
				c-0.062,4.401,2.961,8.257,7.279,9.285l17.578,4.182c4.319,1.027,8.781-1.048,10.744-4.997l9.982-20.08
				c1.611-3.24,4.949-5.319,8.593-5.256c3.849,0.065,7.677-0.026,11.477-0.275c3.625-0.238,7.052,1.662,8.824,4.804l11.002,19.51
				c2.166,3.842,6.73,5.682,10.99,4.432l17.337-5.09c4.259-1.25,7.077-5.258,6.785-9.65l-1.486-22.358
				c-0.24-3.615,1.63-7.055,4.823-8.822c3.303-1.828,6.53-3.787,9.672-5.874c3.038-2.018,6.98-2.107,10.12-0.252l19.421,11.468
				c3.815,2.253,8.697,1.585,11.756-1.608l12.449-12.997c3.059-3.193,3.478-8.059,1.008-11.717l-12.54-18.581
				c-2.031-3.009-2.148-6.908-0.279-10.019c1.93-3.211,3.733-6.517,5.406-9.911c1.609-3.262,4.985-5.301,8.649-5.251l22.586,0.307
				c4.442,0.06,8.334-2.937,9.372-7.217l4.226-17.422C1377.468,1814.495,1375.376,1810.074,1371.391,1808.131z M1208.613,1864.592
				c-42.866,0.922-78.356-32.768-79.27-75.247c-0.913-42.479,33.097-77.662,75.963-78.583c42.866-0.921,78.356,32.768,79.269,75.247
				C1285.489,1828.487,1251.479,1863.671,1208.613,1864.592z"/>
			<path d="M1177.771,1958.116c-0.917,0-1.845-0.106-2.773-0.327l-17.578-4.181c-5.367-1.277-9.063-5.995-8.986-11.474l0.318-22.384
				c0.04-2.763-1.547-5.329-4.044-6.539c-3.464-1.675-6.881-3.507-10.158-5.44c-2.388-1.409-5.434-1.322-7.756,0.217l-18.755,12.436
				c-4.585,3.041-10.576,2.534-14.57-1.227l-13.111-12.332c-4.01-3.773-4.833-9.699-1.999-14.411l11.579-19.246
				c1.426-2.371,1.367-5.353-0.153-7.599c-2.148-3.173-4.194-6.482-6.078-9.835c-1.334-2.371-3.999-3.802-6.798-3.6l-22.559,1.482
				c-5.496,0.358-10.44-3.056-12.007-8.301l-5.129-17.178c-1.57-5.258,0.703-10.798,5.528-13.47l19.69-10.91
				c2.435-1.348,3.893-3.962,3.714-6.656c-0.254-3.812-0.347-7.701-0.278-11.561c0.049-2.711-1.543-5.256-4.055-6.482l-20.258-9.883
				c-4.957-2.419-7.516-7.831-6.222-13.162l4.226-17.421c1.279-5.271,5.95-8.914,11.393-8.914c0.055,0,0.111,0,0.167,0l22.586,0.308
				c2.835-0.037,5.406-1.536,6.628-4.014c1.696-3.437,3.544-6.827,5.493-10.072c1.414-2.352,1.33-5.349-0.214-7.633l-12.542-18.583
				c-3.075-4.558-2.563-10.518,1.246-14.493l12.45-12.997c3.796-3.962,9.75-4.779,14.485-1.985l19.418,11.467
				c2.408,1.422,5.438,1.359,7.721-0.156c3.204-2.13,6.543-4.157,9.923-6.025c2.391-1.322,3.817-3.955,3.634-6.71l-1.486-22.354
				c-0.365-5.468,3.079-10.373,8.373-11.929l17.336-5.089c5.289-1.552,10.857,0.7,13.548,5.473l11.002,19.51
				c1.361,2.417,4.001,3.879,6.746,3.678c3.836-0.252,7.755-0.338,11.661-0.28c0.04,0,0.08,0.002,0.12,0.002
				c2.706,0,5.226-1.571,6.448-4.027l9.981-20.08c2.438-4.905,7.885-7.443,13.245-6.166l17.579,4.181
				c5.369,1.277,9.063,5.995,8.985,11.476l-0.318,22.382c-0.04,2.763,1.547,5.329,4.044,6.539c3.464,1.677,6.882,3.507,10.157,5.44
				c2.387,1.407,5.431,1.32,7.756-0.217l18.755-12.436c4.583-3.041,10.575-2.529,14.571,1.227l13.111,12.332
				c4.011,3.773,4.833,9.699,1.999,14.411l-11.581,19.25c-1.424,2.367-1.35,5.368,0.189,7.644c2.127,3.145,4.151,6.42,6.018,9.736
				c1.352,2.401,4.026,3.849,6.819,3.65l22.564-1.482c5.471-0.371,10.439,3.052,12.007,8.301l5.129,17.178
				c1.57,5.258-0.703,10.798-5.528,13.47l-19.69,10.91c-2.435,1.348-3.892,3.962-3.713,6.656c0.251,3.799,0.346,7.69,0.277,11.563
				c-0.049,2.711,1.543,5.254,4.055,6.48l20.258,9.883c4.957,2.419,7.515,7.831,6.221,13.16l-4.226,17.423
				c-1.278,5.271-5.948,8.914-11.391,8.914c-0.055,0-0.111,0-0.167,0l-22.586-0.308c-0.034,0-0.066,0-0.1,0
				c-2.767,0-5.321,1.567-6.528,4.014c-1.698,3.442-3.547,6.829-5.495,10.072c-1.412,2.352-1.328,5.349,0.217,7.635l12.54,18.58
				c3.077,4.558,2.564,10.518-1.246,14.493l-12.449,12.997c-3.794,3.964-9.753,4.781-14.486,1.985l-19.421-11.469
				c-2.407-1.422-5.453-1.344-7.765,0.191c-3.179,2.111-6.486,4.12-9.825,5.967c-2.42,1.339-3.865,3.981-3.683,6.732l1.486,22.358
				c0.365,5.468-3.079,10.373-8.373,11.929l-17.338,5.089c-5.284,1.547-10.856-0.702-13.548-5.473l-11.001-19.508
				c-1.362-2.414-3.989-3.862-6.746-3.68c-3.835,0.251-7.756,0.342-11.661,0.28c-2.745,0.017-5.328,1.532-6.567,4.025l-9.983,20.08
				C1186.225,1955.68,1182.151,1958.116,1177.771,1958.116z M1130.858,1902.338c2.062,0,4.122,0.533,5.947,1.61
				c3.173,1.873,6.482,3.643,9.838,5.267c4.042,1.959,6.613,6.12,6.548,10.6l-0.318,22.382c-0.048,3.383,2.244,6.3,5.574,7.094
				l17.578,4.181c3.333,0.78,6.727-0.778,8.242-3.825l9.983-20.08c1.967-3.958,6.042-6.489,10.422-6.489
				c0.066,0,0.131,0.002,0.196,0.002c3.776,0.061,7.58-0.028,11.295-0.271c4.444-0.29,8.706,2.037,10.903,5.93l11.001,19.508
				c1.672,2.965,5.135,4.361,8.431,3.392l17.338-5.089c3.285-0.962,5.421-3.997,5.196-7.373l-1.487-22.358
				c-0.296-4.46,2.045-8.743,5.964-10.91c3.235-1.79,6.437-3.734,9.518-5.78c3.719-2.471,8.616-2.594,12.476-0.316l19.421,11.469
				c2.95,1.74,6.661,1.24,9.025-1.231l12.449-12.997c2.352-2.456,2.669-6.131,0.773-8.94l-12.541-18.58
				c-2.504-3.713-2.638-8.583-0.34-12.406c1.886-3.136,3.675-6.417,5.318-9.749c1.974-4.003,6.153-6.615,10.67-6.489l22.586,0.308
				c3.394,0.019,6.385-2.224,7.185-5.52l4.226-17.423c0.798-3.288-0.788-6.63-3.855-8.127l-20.258-9.883
				c-4.057-1.979-6.627-6.118-6.547-10.546c0.066-3.75-0.024-7.514-0.268-11.19c-0.293-4.402,2.059-8.656,5.99-10.834l19.691-10.91
				c2.985-1.654,4.394-5.074,3.427-8.316l-5.129-17.178c-0.971-3.251-4.061-5.366-7.464-5.141l-22.563,1.482
				c-4.473,0.321-8.793-2.02-10.98-5.904c-1.807-3.208-3.767-6.38-5.827-9.426c-2.501-3.702-2.625-8.576-0.314-12.419l11.581-19.25
				c1.747-2.904,1.239-6.56-1.236-8.888l-13.111-12.332c-2.486-2.339-6.22-2.659-9.078-0.761l-18.754,12.434
				c-3.729,2.475-8.62,2.607-12.464,0.342c-3.172-1.87-6.48-3.643-9.836-5.267c-4.042-1.959-6.613-6.12-6.549-10.6l0.318-22.382
				c0.049-3.383-2.243-6.3-5.573-7.094l-17.579-4.181c-3.339-0.795-6.728,0.776-8.242,3.825l-9.98,20.08
				c-1.998,4.018-6.221,6.496-10.619,6.487c-3.778-0.061-7.581,0.026-11.295,0.271c-4.421,0.282-8.707-2.035-10.903-5.928
				l-11.002-19.51c-1.672-2.965-5.135-4.361-8.431-3.392l-17.336,5.089c-3.285,0.962-5.421,3.994-5.196,7.373l1.486,22.354
				c0.298,4.465-2.023,8.739-5.915,10.889c-3.274,1.81-6.509,3.776-9.613,5.839c-3.693,2.453-8.573,2.56-12.434,0.282
				l-19.418-11.467c-2.949-1.745-6.659-1.235-9.024,1.231l-12.45,12.997c-2.35,2.453-2.668,6.129-0.771,8.94l12.541,18.583
				c2.505,3.708,2.639,8.578,0.339,12.404c-1.886,3.141-3.675,6.42-5.317,9.749c-1.975,4.001-6.241,6.478-10.67,6.489l-22.586-0.308
				c-3.393-0.052-6.385,2.224-7.186,5.522l-4.226,17.419c-0.798,3.29,0.788,6.632,3.856,8.13l20.258,9.883
				c4.056,1.979,6.625,6.12,6.547,10.548c-0.067,3.736,0.023,7.501,0.268,11.188c0.293,4.402-2.059,8.654-5.989,10.834
				l-19.691,10.91c-2.985,1.654-4.394,5.074-3.427,8.316l5.129,17.178c0.972,3.251,4.056,5.379,7.464,5.141l22.559-1.482
				c4.481-0.299,8.791,2.003,10.957,5.854c1.825,3.247,3.806,6.45,5.885,9.523c2.484,3.672,2.594,8.529,0.281,12.375l-11.579,19.246
				c-1.747,2.904-1.239,6.56,1.237,8.888l13.111,12.332c2.489,2.341,6.222,2.657,9.077,0.761l18.754-12.434
				C1126.299,1902.99,1128.579,1902.338,1130.858,1902.338z M1206.884,1866.83c-20.667,0-40.195-7.766-55.166-21.977
				c-15.405-14.625-24.138-34.32-24.594-55.462c-0.454-21.14,7.425-41.194,22.188-56.465c14.756-15.267,34.625-23.925,55.946-24.384
				c44.039-1.03,80.596,33.782,81.536,77.419c0.454,21.142-7.425,41.194-22.187,56.465c-14.757,15.267-34.626,23.925-55.947,24.385
				l-0.048-2.219l0.048,2.219C1208.069,1866.824,1207.475,1866.83,1206.884,1866.83z M1207.013,1712.964
				c-0.554,0-1.103,0.004-1.659,0.017c-20.143,0.431-38.912,8.611-52.851,23.03c-13.933,14.415-21.369,33.338-20.94,53.286
				c0.428,19.948,8.672,38.535,23.211,52.336c14.545,13.806,33.666,21.168,53.791,20.739c20.143-0.431,38.913-8.611,52.85-23.03
				c13.934-14.413,21.37-33.338,20.941-53.286C1281.483,1745.419,1247.84,1712.964,1207.013,1712.964z"/>
		</g>
		<g>
			<path style="fill:#FFFFFF;" d="M1199.529,1499.494l-15.685-4.934c-2.531-0.796-4.402-2.955-4.747-5.567
				c-0.365-2.759-0.841-5.486-1.429-8.176c-0.562-2.565,0.454-5.224,2.552-6.835l13.023-10.005c2.564-1.97,3.415-5.435,2.049-8.343
				l-5.562-11.837c-1.366-2.908-4.585-4.483-7.751-3.793l-16.116,3.514c-2.606,0.568-5.31-0.392-6.938-2.481
				c-1.684-2.161-3.456-4.253-5.311-6.271c-1.794-1.951-2.281-4.759-1.268-7.208l6.268-15.142c1.231-2.974,0.222-6.391-2.43-8.228
				l-10.795-7.476c-2.652-1.837-6.239-1.603-8.637,0.564l-12.182,11.003c-1.973,1.782-4.799,2.293-7.263,1.298
				c-2.544-1.028-5.143-1.954-7.792-2.779c-2.547-0.793-4.392-2.983-4.749-5.607l-2.196-16.181
				c-0.432-3.182-3.031-5.636-6.257-5.909l-13.134-1.111c-3.227-0.273-6.221,1.708-7.209,4.769l-5.024,15.566
				c-0.811,2.512-2.994,4.373-5.629,4.724c-2.784,0.37-5.536,0.851-8.25,1.442c-2.589,0.564-5.267-0.435-6.886-2.51l-10.051-12.882
				c-1.979-2.536-5.471-3.37-8.408-2.006l-11.955,5.551c-2.937,1.364-4.536,4.56-3.849,7.697l3.495,15.965
				c0.562,2.568-0.389,5.254-2.49,6.865c-2.207,1.692-4.344,3.472-6.404,5.337c-1.962,1.776-4.793,2.242-7.246,1.25l-15.251-6.167
				c-2.996-1.212-6.446-0.201-8.306,2.434l-7.572,10.725c-1.861,2.635-1.635,6.191,0.542,8.562l11.06,12.045
				c1.791,1.95,2.298,4.751,1.286,7.198c-1.044,2.525-1.986,5.106-2.826,7.735c-0.807,2.528-3.022,4.364-5.67,4.725l-16.326,2.226
				c-3.21,0.438-5.693,3.022-5.979,6.222l-1.161,13.026c-0.285,3.2,1.703,6.163,4.788,7.133l15.685,4.934
				c2.531,0.796,4.402,2.956,4.747,5.567c0.365,2.759,0.841,5.486,1.429,8.176c0.561,2.565-0.455,5.224-2.552,6.835l-13.023,10.005
				c-2.564,1.97-3.416,5.435-2.049,8.343l5.562,11.837c1.366,2.908,4.585,4.483,7.751,3.793l16.113-3.513
				c2.592-0.565,5.298,0.369,6.916,2.448c1.7,2.183,3.49,4.297,5.365,6.334c1.785,1.94,2.246,4.745,1.238,7.18l-6.267,15.138
				c-1.232,2.975-0.222,6.392,2.43,8.229l10.794,7.475c2.652,1.837,6.239,1.603,8.637-0.564l12.182-11.003
				c1.973-1.781,4.799-2.293,7.263-1.297c2.544,1.028,5.144,1.954,7.793,2.778c2.547,0.793,4.393,2.983,4.749,5.607l2.196,16.181
				c0.432,3.182,3.031,5.635,6.257,5.909l13.134,1.111c3.227,0.273,6.221-1.707,7.209-4.769l5.025-15.567
				c0.811-2.512,2.994-4.373,5.629-4.723c2.783-0.37,5.535-0.851,8.25-1.442c2.589-0.564,5.267,0.435,6.886,2.51l10.051,12.882
				c1.979,2.536,5.471,3.37,8.408,2.006l11.955-5.55c2.937-1.364,4.536-4.56,3.849-7.697l-3.495-15.968
				c-0.565-2.582,0.411-5.266,2.523-6.886c2.185-1.676,4.3-3.439,6.341-5.285c1.973-1.785,4.807-2.276,7.273-1.279l15.253,6.168
				c2.996,1.212,6.446,0.201,8.306-2.434l7.572-10.725c1.86-2.635,1.635-6.191-0.542-8.562l-11.06-12.045
				c-1.791-1.95-2.298-4.751-1.287-7.197c1.044-2.526,1.986-5.106,2.826-7.735c0.807-2.528,3.022-4.364,5.67-4.725l16.326-2.226
				c3.211-0.438,5.693-3.022,5.979-6.222l1.161-13.026C1204.603,1503.427,1202.614,1500.465,1199.529,1499.494z M1088.222,1557.865
				c-30.823,5.31-60.077-15.147-65.339-45.692c-5.262-30.545,15.459-59.611,46.282-64.921s60.076,15.147,65.338,45.692
				C1139.766,1523.489,1119.045,1552.555,1088.222,1557.865z"/>
			<path d="M1074.818,1629.372c-0.263,0-0.529-0.011-0.797-0.035l-13.134-1.112c-4.292-0.362-7.693-3.578-8.269-7.82l-2.195-16.181
				c-0.241-1.769-1.5-3.255-3.21-3.786c-2.71-0.845-5.39-1.801-7.965-2.839c-1.666-0.676-3.606-0.325-4.944,0.884l-12.181,11.004
				c-3.183,2.876-7.865,3.184-11.389,0.741l-10.793-7.475c-3.538-2.449-4.861-6.933-3.216-10.902l6.267-15.139
				c0.682-1.649,0.36-3.544-0.821-4.829c-1.912-2.076-3.756-4.254-5.483-6.474c-1.078-1.385-2.919-2.029-4.691-1.643l-16.114,3.515
				c-4.198,0.915-8.413-1.149-10.231-5.017l-5.564-11.84c-1.823-3.88-0.71-8.42,2.707-11.045l13.021-10.004
				c1.426-1.097,2.108-2.902,1.736-4.601c-0.599-2.74-1.091-5.553-1.461-8.359c-0.229-1.729-1.49-3.199-3.214-3.741l-15.685-4.935
				c-4.108-1.289-6.712-5.175-6.332-9.447l1.161-13.026c0.379-4.261,3.624-7.642,7.889-8.225l16.326-2.226
				c1.8-0.245,3.313-1.502,3.856-3.201c0.86-2.69,1.833-5.351,2.89-7.906c0.674-1.634,0.333-3.537-0.871-4.85l-11.061-12.044
				c-2.905-3.166-3.201-7.831-0.72-11.344l7.573-10.726c2.472-3.498,6.973-4.82,10.951-3.21l15.25,6.168
				c1.677,0.674,3.61,0.349,4.923-0.839c2.112-1.909,4.314-3.745,6.545-5.453c1.396-1.071,2.053-2.889,1.671-4.629l-3.495-15.964
				c-0.915-4.181,1.175-8.37,5.082-10.186l11.956-5.551c3.899-1.805,8.46-0.72,11.091,2.655l10.052,12.882
				c1.102,1.415,2.932,2.092,4.663,1.706c2.758-0.6,5.594-1.097,8.431-1.474c1.762-0.234,3.256-1.491,3.809-3.203l5.025-15.57
				c1.313-4.07,5.21-6.682,9.508-6.296l13.134,1.112c4.293,0.362,7.694,3.578,8.268,7.82l2.197,16.181
				c0.241,1.769,1.5,3.255,3.21,3.786c2.712,0.845,5.391,1.801,7.964,2.841c1.664,0.67,3.607,0.323,4.945-0.889l12.182-11.001
				c3.183-2.876,7.864-3.184,11.389-0.741l10.794,7.475c3.537,2.449,4.86,6.931,3.216,10.902l-6.268,15.143
				c-0.682,1.645-0.348,3.552,0.852,4.857c1.889,2.055,3.715,4.211,5.427,6.409c1.097,1.404,2.949,2.063,4.715,1.675l16.116-3.513
				c4.201-0.925,8.414,1.144,10.232,5.015l5.563,11.84c1.824,3.877,0.711,8.42-2.707,11.045l-13.021,10.004
				c-1.426,1.097-2.108,2.902-1.736,4.601c0.599,2.74,1.091,5.553,1.461,8.359c0.229,1.729,1.49,3.199,3.214,3.741l15.684,4.935
				c4.11,1.292,6.714,5.175,6.333,9.447l-1.161,13.026c-0.379,4.261-3.624,7.642-7.889,8.225l-16.326,2.226
				c-1.8,0.245-3.313,1.502-3.856,3.201c-0.86,2.69-1.833,5.351-2.89,7.906c-0.674,1.634-0.333,3.537,0.871,4.85l11.06,12.044
				c2.905,3.164,3.202,7.828,0.721,11.344l-7.573,10.726c-2.471,3.498-6.972,4.82-10.952,3.21l-15.252-6.168
				c-1.677-0.678-3.62-0.338-4.952,0.867c-2.087,1.888-4.266,3.704-6.479,5.401c-1.416,1.086-2.087,2.913-1.706,4.651l3.495,15.967
				c0.915,4.181-1.175,8.37-5.082,10.186l-11.956,5.55c-3.898,1.803-8.459,0.717-11.091-2.655l-10.052-12.883
				c-1.103-1.413-2.938-2.096-4.663-1.706c-2.757,0.6-5.593,1.097-8.43,1.474c-1.761,0.234-3.256,1.491-3.81,3.206l-5.025,15.568
				C1082.297,1626.858,1078.783,1629.372,1074.818,1629.372z M1037.507,1592.825c1.152,0,2.307,0.214,3.403,0.657
				c2.462,0.995,5.027,1.909,7.623,2.718c3.349,1.042,5.816,3.958,6.287,7.427l2.196,16.181c0.295,2.165,2.04,3.81,4.247,3.997
				l13.134,1.112c2.217,0.186,4.233-1.144,4.909-3.24l5.025-15.568c1.077-3.333,4.002-5.782,7.45-6.24
				c2.715-0.362,5.43-0.837,8.069-1.413c3.391-0.735,6.961,0.566,9.107,3.314l10.052,12.883c1.355,1.734,3.706,2.295,5.724,1.359
				l11.955-5.551c2.007-0.932,3.083-3.075,2.615-5.21l-3.495-15.967c-0.747-3.411,0.565-6.994,3.341-9.122
				c2.119-1.625,4.206-3.364,6.204-5.171c2.586-2.339,6.354-3.002,9.595-1.688l15.251,6.168c2.058,0.828,4.386,0.147,5.661-1.658
				l7.573-10.726c1.266-1.79,1.115-4.168-0.364-5.778l-11.061-12.046c-2.366-2.579-3.033-6.326-1.702-9.547
				c1.011-2.445,1.941-4.989,2.763-7.564c1.061-3.318,3.998-5.772,7.484-6.248l16.326-2.226c2.201-0.299,3.873-2.035,4.068-4.22
				l1.161-13.026c0.195-2.176-1.139-4.157-3.242-4.818c0,0,0,0-0.001,0l-15.685-4.935c-3.363-1.06-5.828-3.962-6.281-7.395
				c-0.354-2.683-0.825-5.373-1.398-7.991c-0.737-3.37,0.585-6.931,3.368-9.07l13.022-10.004c1.75-1.344,2.322-3.663,1.394-5.637
				l-5.562-11.84c-0.932-1.983-3.095-3.045-5.27-2.566l-16.116,3.513c-3.423,0.754-7.022-0.54-9.161-3.286
				c-1.637-2.102-3.385-4.166-5.194-6.131c-2.364-2.573-3.025-6.324-1.684-9.56l6.268-15.143c0.837-2.02,0.161-4.304-1.643-5.553
				l-10.794-7.475c-1.821-1.261-4.239-1.099-5.887,0.386l-12.181,11.001c-2.593,2.341-6.357,3.006-9.582,1.71
				c-2.462-0.995-5.026-1.909-7.622-2.718c-3.349-1.045-5.817-3.96-6.287-7.427l-2.197-16.181c-0.294-2.167-2.039-3.81-4.246-3.997
				l-13.134-1.112c-2.214-0.18-4.234,1.144-4.909,3.24l-5.025,15.568c-1.076,3.333-4,5.782-7.449,6.24
				c-2.714,0.362-5.43,0.837-8.07,1.413c-3.389,0.739-6.96-0.566-9.107-3.314l-10.052-12.883c-1.356-1.734-3.707-2.295-5.724-1.359
				l-11.955,5.551c-2.007,0.932-3.083,3.075-2.615,5.21l3.495,15.964c0.747,3.414-0.551,6.985-3.307,9.101
				c-2.138,1.639-4.246,3.394-6.267,5.221c-2.563,2.325-6.32,2.978-9.566,1.662l-15.25-6.168c-2.058-0.834-4.386-0.147-5.661,1.658
				l-7.573,10.726c-1.266,1.79-1.116,4.168,0.364,5.778l11.061,12.046c2.366,2.579,3.033,6.326,1.702,9.547
				c-1.011,2.445-1.941,4.989-2.763,7.564c-1.061,3.318-3.998,5.772-7.484,6.248l-16.327,2.226c-2.201,0.299-3.874,2.035-4.068,4.22
				l-1.161,13.026c-0.194,2.176,1.139,4.157,3.242,4.818l15.686,4.935c3.363,1.06,5.828,3.962,6.281,7.395
				c0.354,2.683,0.825,5.373,1.398,7.991c0.737,3.37-0.585,6.929-3.368,9.07l-13.022,10.004c-1.749,1.344-2.321,3.663-1.392,5.639
				l5.563,11.838c0.932,1.983,3.1,3.039,5.269,2.566l16.113-3.511c3.431-0.752,7.02,0.527,9.14,3.251
				c1.653,2.124,3.418,4.207,5.247,6.196c2.346,2.549,2.996,6.292,1.656,9.53l-6.267,15.141c-0.838,2.02-0.161,4.304,1.643,5.553
				l10.793,7.475c1.823,1.264,4.241,1.101,5.886-0.386l12.182-11.004C1033.04,1593.642,1035.265,1592.825,1037.507,1592.825z
				 M1078.492,1560.919c-28.06,0-52.914-20.03-57.796-48.368c-5.462-31.704,16.112-61.977,48.092-67.486
				c31.985-5.516,62.441,15.8,67.902,47.501c2.646,15.362-0.901,30.843-9.988,43.589c-9.083,12.742-22.616,21.229-38.104,23.897
				C1085.203,1560.638,1081.824,1560.919,1078.492,1560.919z M1078.892,1448.637c-3.084,0-6.208,0.26-9.35,0.802
				c-29.568,5.093-49.518,33.067-44.472,62.358c5.047,29.289,33.211,48.981,62.774,43.882c14.327-2.469,26.843-10.316,35.243-22.098
				c8.395-11.777,11.673-26.075,9.23-40.26C1127.806,1467.144,1104.832,1448.637,1078.892,1448.637z"/>
		</g>
	</g>
	<g>
		<g>
			<g>
				<g>
					<polygon style="fill:#FFFFFF;" points="1058.964,587.79 1525.511,668.82 1991.656,587.688 1520.219,505.68 					"/>
					<path d="M1525.511,671.038c-0.127,0-0.254-0.011-0.379-0.032l-466.547-81.03c-1.062-0.184-1.838-1.105-1.84-2.182
						c-0.002-1.077,0.769-2,1.83-2.189l461.255-82.109c0.255-0.048,0.516-0.046,0.769-0.002l471.436,82.007
						c1.063,0.184,1.839,1.107,1.839,2.187c0,1.079-0.776,2-1.839,2.187l-466.145,81.132
						C1525.766,671.028,1525.639,671.038,1525.511,671.038z M1071.779,587.763l453.732,78.804l453.198-78.88l-458.485-79.753
						L1071.779,587.763z"/>
				</g>
				<g>
					<polygon style="fill:#FFFFFF;" points="1058.964,587.79 1525.511,668.82 1991.656,587.688 1520.219,505.68 					"/>
					<path d="M1525.511,671.038c-0.127,0-0.254-0.011-0.379-0.032l-466.547-81.03c-1.062-0.184-1.838-1.105-1.84-2.182
						c-0.002-1.077,0.769-2,1.83-2.189l461.255-82.109c0.255-0.048,0.516-0.046,0.769-0.002l471.436,82.007
						c1.063,0.184,1.839,1.107,1.839,2.187c0,1.079-0.776,2-1.839,2.187l-466.145,81.132
						C1525.766,671.028,1525.639,671.038,1525.511,671.038z M1071.779,587.763l453.732,78.804l453.198-78.88l-458.485-79.753
						L1071.779,587.763z"/>
				</g>
				<path d="M1706.607,637.64c-0.127,0-0.255-0.011-0.379-0.032L1251.906,558.7c-1.063-0.184-1.839-1.105-1.84-2.185
					c-0.001-1.077,0.773-2,1.835-2.187l100.063-17.622c0.251-0.048,0.511-0.046,0.765-0.002l458.856,79.82
					c1.068,0.186,1.846,1.118,1.839,2.202c-0.007,1.086-0.797,2.005-1.869,2.176l-104.597,16.71
					C1706.841,637.631,1706.724,637.64,1706.607,637.64z M1265.167,556.497l441.456,76.673l91.097-14.554l-445.369-77.473
					L1265.167,556.497z"/>
				<g>
					<polygon style="fill:#FFFFFF;" points="1525.421,1355.545 1525.421,668.145 1057.045,587.503 1057.045,1273.017 					"/>
					<path d="M1525.421,1357.763c-0.128,0-0.257-0.011-0.385-0.035l-468.377-82.527c-1.061-0.186-1.835-1.108-1.835-2.185V587.503
						c0-0.655,0.289-1.277,0.789-1.697c0.501-0.425,1.165-0.607,1.807-0.49l468.377,80.642c1.065,0.182,1.843,1.105,1.843,2.187
						v687.399c0,0.657-0.291,1.279-0.792,1.699C1526.445,1357.581,1525.939,1357.763,1525.421,1357.763z M1059.264,1271.155
						l463.938,81.745V670.015l-463.938-79.879V1271.155z"/>
					<g>
						<g>
							<path d="M1441.098,1175.823c-0.129,0-0.259-0.011-0.389-0.035l-302.739-53.873c-1.059-0.189-1.83-1.11-1.83-2.185V936.492
								c0-1.227,0.994-2.219,2.219-2.219c1.226,0,2.219,0.993,2.219,2.219v181.379l298.301,53.084V987.136
								c0-1.227,0.994-2.219,2.219-2.219s2.219,0.993,2.219,2.219v186.468c0,0.657-0.29,1.279-0.794,1.701
								C1442.121,1175.643,1441.615,1175.823,1441.098,1175.823z"/>
						</g>
						<path d="M1441.098,987.914c-1.226,0-2.219-0.993-2.219-2.219V846.843l-298.301-51.87v139.194c0,1.227-0.994,2.219-2.219,2.219
							c-1.226,0-2.219-0.993-2.219-2.219V792.335c0-0.655,0.289-1.277,0.791-1.699c0.503-0.421,1.163-0.598,1.809-0.488
							l302.739,52.642c1.063,0.184,1.839,1.108,1.839,2.187v140.718C1443.318,986.921,1442.324,987.914,1441.098,987.914z"/>
						<g>
							<path d="M1169.86,1091.651c-1.226,0-2.219-0.993-2.219-2.219V837.153c0-1.227,0.994-2.219,2.219-2.219
								s2.219,0.993,2.219,2.219v252.279C1172.079,1090.658,1171.086,1091.651,1169.86,1091.651z"/>
							<path d="M1206.959,846.399c0-4.289-3.479-7.768-7.768-7.768c-4.289,0-7.768,3.479-7.768,7.768l0.001,243.999
								c0,4.289,3.477,7.768,7.768,7.768c4.29,0,7.768-3.479,7.768-7.768L1206.959,846.399z"/>
							<path d="M1230.18,1101.38c-1.226,0-2.219-0.993-2.219-2.219V846.882c0-1.227,0.994-2.219,2.219-2.219
								c1.226,0,2.219,0.993,2.219,2.219v252.279C1232.399,1100.387,1231.406,1101.38,1230.18,1101.38z"/>
							<path d="M1250.286,1104.622c-1.226,0-2.219-0.993-2.219-2.219V850.126c0-1.227,0.994-2.219,2.219-2.219
								s2.219,0.993,2.219,2.219v252.276C1252.505,1103.63,1251.512,1104.622,1250.286,1104.622z"/>
							<path d="M1298.266,862.129c0-4.289-3.479-7.768-7.768-7.768c-4.289,0-7.768,3.479-7.768,7.768l0.001,244.002
								c0,4.289,3.477,7.768,7.768,7.768c4.29,0,7.768-3.479,7.768-7.768L1298.266,862.129z"/>
							<path d="M1330.712,1117.594c-1.226,0-2.219-0.993-2.219-2.219V863.098c0-1.227,0.994-2.219,2.219-2.219
								s2.219,0.993,2.219,2.219v252.276C1332.932,1116.601,1331.938,1117.594,1330.712,1117.594z"/>
							<path d="M1378.693,870.865c0-4.291-3.479-7.768-7.768-7.768s-7.768,3.476-7.768,7.768v243.999
								c0,4.289,3.478,7.768,7.768,7.768s7.768-3.479,7.768-7.768V870.865z"/>
							<path d="M1411.139,1130.567c-1.226,0-2.219-0.993-2.219-2.219V876.069c0-1.227,0.994-2.219,2.219-2.219
								s2.219,0.993,2.219,2.219v252.279C1413.359,1129.574,1412.365,1130.567,1411.139,1130.567z"/>
						</g>
					</g>
				</g>
				<g>
					<g>
						<polygon style="fill:#FFFFFF;" points="1525.421,1355.545 1525.421,668.145 1989.736,587.401 1989.736,1273.417 						"/>
						<path d="M1525.421,1357.763c-0.518,0-1.023-0.182-1.426-0.518c-0.503-0.423-0.793-1.045-0.793-1.701V668.145
							c0-1.079,0.776-2.003,1.839-2.187l464.315-80.744c0.646-0.108,1.307,0.067,1.809,0.488c0.502,0.423,0.791,1.045,0.791,1.699
							v686.016c0,1.077-0.773,1.998-1.833,2.185l-464.315,82.126C1525.679,1357.752,1525.55,1357.763,1525.421,1357.763z
							 M1527.641,670.011v682.886l459.877-81.342V590.039L1527.641,670.011z"/>
					</g>
					<path d="M1715.253,710.95c-0.52,0-1.028-0.184-1.433-0.524c-0.498-0.42-0.787-1.042-0.787-1.695v-70.31
						c0-1.079,0.778-2.003,1.842-2.187l96.599-16.645c0.642-0.115,1.306,0.067,1.806,0.49c0.501,0.42,0.79,1.042,0.79,1.697v70.605
						c0,1.084-0.781,2.007-1.849,2.189l-96.599,16.35C1715.5,710.939,1715.376,710.95,1715.253,710.95z M1717.472,640.291v65.813
						l92.16-15.598v-66.095L1717.472,640.291z"/>
				</g>
			</g>
		</g>
	</g>
	<g>
		<circle style="fill:#FFFFFF;" cx="936.253" cy="1882.36" r="27.528"/>
		<path d="M936.253,1912.108c-16.403,0-29.748-13.344-29.748-29.749c0-16.402,13.344-29.746,29.748-29.746
			c16.403,0,29.747,13.344,29.747,29.746C966,1898.764,952.656,1912.108,936.253,1912.108z M936.253,1857.052
			c-13.955,0-25.309,11.352-25.309,25.308c0,13.955,11.354,25.31,25.309,25.31c13.955,0,25.309-11.355,25.309-25.31
			C961.562,1868.404,950.208,1857.052,936.253,1857.052z"/>
	</g>
	<g>
		<path d="M406.7,1395.314c80.141-76.134,122.501-79.568,156.847-155.13c19.305-42.471-1.717-222.105,171.731-228.974
			c22.373-0.886,108.381,3.816,119.639,93.879c4.536,36.292,2.375,61.529-0.036,81.869c-2.078,17.537-1.774,35.302,1.267,52.698
			c4.483,25.641,15.323,54.437,40.125,72.983c1.924,1.438,0.265,4.462-1.981,3.609c-12.879-4.888-31.007-13.993-43.964-29.572
			c-1.149-1.382-3.385-0.408-3.169,1.376c0.1,0.827,0.206,1.662,0.316,2.506c4.993,38.074,66.402,76.134,49.229,149.978
			c-17.173,73.844-411.009,231.836-476.266,199.208S332.872,1465.45,406.7,1395.314z"/>
		<g>
			<g>
				<path style="fill:#FFFFFF;" d="M865.147,2088.933c-18.34-233.366,45.296-335.274,76.114-424.8
					c51.152,38.845,126.816,78.789,224.406,82.499c107.922,4.105,183.268-260.989,191.643-291.748
					c0.466-1.71-0.287-3.507-1.826-4.387l-64.371-36.756c-1.819-1.038-4.134-0.453-5.233,1.331
					c-13.944,22.631-99.679,157.517-163.366,159.198c-69.521,1.836-158.834-136.026-201.624-169.656l-0.158,0.509
					c-1.614-2.033-3.249-3.867-4.905-5.468c-75.473-72.982-269.089-69.818-269.089-69.818
					c-110.544,13.093-183.271,77.092-183.271,77.092l-0.003,0.308c-7.863,5.063-74.069,51.99-62.489,190.146
					c13.531,161.418,34.129,272.088,110.492,278.633c10.658,0.915,21.583,1.131,32.552-0.332L865.147,2088.933z"/>
				<path d="M865.145,2091.153c-1.148,0-2.119-0.882-2.211-2.046c-15.225-193.743,25.396-295.85,58.034-377.894
					c6.64-16.688,12.911-32.451,18.195-47.8c0.231-0.674,0.771-1.194,1.453-1.402c0.677-0.204,1.42-0.076,1.987,0.358
					c46.522,35.327,122.999,78.24,223.148,82.048c106.154,3.979,181.216-259.992,189.417-290.114c0.198-0.728-0.126-1.5-0.787-1.877
					l-64.368-36.756c-0.791-0.449-1.774-0.202-2.243,0.568c-16.306,26.463-100.901,158.555-165.198,160.254
					c-0.48,0.011-0.969,0.017-1.45,0.017c-49.168,0.006-106.143-65.323-152.018-117.915c-19.111-21.912-35.698-40.928-48.357-51.249
					c-0.005,0-0.01,0-0.015,0c-0.67,0-1.313-0.303-1.738-0.839c-1.582-1.994-3.167-3.76-4.71-5.254
					c-73.237-70.819-261.879-69.266-267.4-69.196c-103.446,12.291-174.333,70.106-181.379,76.051
					c-0.171,0.403-0.461,0.752-0.84,0.997c-7.502,4.831-72.959,51.144-61.479,188.093c14.294,170.523,36.625,270.449,108.47,276.609
					c12.319,1.055,22.508,0.956,32.069-0.321c1.214-0.165,2.331,0.691,2.494,1.907c0.162,1.214-0.691,2.33-1.906,2.492
					c-9.892,1.32-20.387,1.431-33.035,0.343c-74.966-6.424-98.023-107.772-112.514-280.657
					c-11.385-135.83,52.242-184.623,62.76-191.711c0.122-0.223,0.283-0.425,0.478-0.596c0.733-0.644,74.518-64.606,184.476-77.629
					c0.075-0.009,0.149-0.013,0.225-0.015c1.924-0.048,195.406-2.336,270.668,70.442c1.338,1.296,2.699,2.772,4.057,4.4
					c0.299,0.076,0.584,0.212,0.834,0.41c13.134,10.323,30.305,30.009,50.188,52.805c45.276,51.907,101.527,116.396,148.657,116.396
					c0.453,0,0.897-0.006,1.349-0.02c63.325-1.671,151.67-142.133,161.535-158.143c1.735-2.818,5.345-3.741,8.223-2.094
					l64.372,36.756c2.418,1.383,3.596,4.218,2.866,6.896c-8.233,30.232-83.052,293.427-191.328,293.432
					c-0.846,0-1.692-0.017-2.541-0.05c-99.574-3.786-175.982-45.761-223.224-81.11c-5.099,14.532-11.02,29.415-17.265,45.113
					c-32.47,81.617-72.878,183.193-57.733,375.907c0.095,1.222-0.817,2.291-2.039,2.386
					C865.262,2091.151,865.204,2091.153,865.145,2091.153z"/>
			</g>
			<path d="M549.665,1879.301c-1.124,0-2.087-0.85-2.205-1.992c-0.127-1.218,0.76-2.308,1.979-2.436
				c91.227-9.441,130.74-126.882,150.995-448.785c0.077-1.222,1.134-2.133,2.355-2.076c1.222,0.078,2.152,1.131,2.075,2.354
				c-10.684,169.784-27.134,281.056-51.771,350.185c-23.56,66.103-55.387,97.79-103.197,102.74
				C549.818,1879.297,549.741,1879.301,549.665,1879.301z"/>
			<path d="M937.239,1682.881c-0.263,0-0.531-0.046-0.792-0.145c-1.144-0.438-1.719-1.721-1.281-2.865
				c8.488-22.23,17.583-48.678,20.67-76.294c5.92-52.978-17.718-118.713-44.128-156.266c-0.705-1.003-0.464-2.386,0.539-3.093
				c1.002-0.704,2.387-0.466,3.092,0.54c26.891,38.236,50.952,105.239,44.908,159.313c-3.141,28.11-12.345,54.892-20.934,77.382
				C938.975,1682.337,938.132,1682.881,937.239,1682.881z"/>
			<path d="M511.456,1718.67c-0.236,0-0.477-0.037-0.714-0.117c-1.161-0.394-1.781-1.656-1.387-2.815l103.039-303.391
				c0.392-1.164,1.646-1.788,2.815-1.389c1.161,0.395,1.782,1.656,1.387,2.815l-103.039,303.391
				C513.244,1718.089,512.38,1718.67,511.456,1718.67z"/>
			<path d="M537.771,1562.991c-1.207,0-2.195-0.967-2.218-2.178c-1.144-62.946-13.017-107.2-35.286-131.537
				c-0.827-0.904-0.765-2.308,0.139-3.134c0.905-0.83,2.309-0.767,3.136,0.139c23.021,25.156,35.285,70.392,36.45,134.45
				c0.022,1.227-0.954,2.239-2.179,2.26C537.799,1562.991,537.785,1562.991,537.771,1562.991z"/>
		</g>
		<g>
			<g>
				<path style="fill:#FFFFFF;" d="M1303.957,1416.884c8.894-19.318,16.82-56.593,25.858-69.398
					c9.039-12.805,19.651-23.914,36.537-34.512c8.667-5.44,26.367-15.873,39.937-19.503c13.57-3.63,7.635,22.566-4.532,27.26
					c-12.167,4.693-21.537,13.272-18.204,15.577c2.315,1.6,8.762,8.568,21.186,5.587c13.917-3.34,23.134-16.444,22.788-30.752
					c-0.06-2.473-0.309-4.993-0.834-7.437c-3.211-14.934,3.812-30.459,17.846-36.49c6.637-2.852,14.621-4.283,23.985-2.734
					c14.841,2.455,18.386,86.913-38.181,114.12c-11.709,5.632-59.919,15.55-69.842,29.231
					c-9.923,13.681-17.057,33.007-17.057,33.007L1303.957,1416.884z"/>
				<path d="M1343.443,1443.056c-0.401,0-0.8-0.108-1.151-0.321l-39.485-23.955c-0.964-0.583-1.337-1.799-0.865-2.824
					c3.755-8.158,7.424-19.848,10.972-31.155c5.002-15.941,9.726-30.999,15.089-38.596c10.326-14.63,21.79-25.46,37.17-35.111
					c9.252-5.808,26.823-16.099,40.544-19.768c4.84-1.296,8.568,0.496,9.97,4.799c2.615,8.03-3.515,22.967-13.131,26.675
					c-10.065,3.882-16.651,9.863-17.396,11.931c0.243,0.184,0.517,0.401,0.823,0.646c2.933,2.349,8.402,6.721,18.238,4.356
					c12.546-3.01,21.414-15.013,21.088-28.539c-0.063-2.525-0.326-4.887-0.786-7.024c-3.509-16.32,4.54-32.722,19.139-38.997
					c7.867-3.379,16.355-4.359,25.223-2.883c6.859,1.133,9.466,12.36,10.41,18.953c3.952,27.588-5.583,78.958-47.99,99.357
					c-3.74,1.797-10.901,3.971-19.192,6.487c-18.303,5.553-43.369,13.158-49.816,22.046c-9.632,13.279-16.701,32.282-16.772,32.473
					c-0.23,0.62-0.725,1.108-1.35,1.326C1343.937,1443.015,1343.689,1443.056,1343.443,1443.056z M1306.783,1416.001l35.548,21.565
					c2.286-5.726,8.396-20.041,16.372-31.038c7.323-10.097,32.162-17.633,52.121-23.689c8.116-2.462,15.125-4.59,18.556-6.24
					c40.272-19.372,49.294-68.383,45.521-94.727c-1.421-9.916-4.49-14.831-6.74-15.204c-8.018-1.322-15.671-0.457-22.746,2.583
					c-12.656,5.44-19.616,19.731-16.553,33.986c0.518,2.406,0.815,5.048,0.883,7.848c0.377,15.605-9.922,29.469-24.489,32.965
					c-11.957,2.874-19.028-2.789-22.048-5.208c-0.363-0.29-0.666-0.537-0.917-0.711c-1.199-0.828-1.784-2.154-1.607-3.637
					c0.619-5.191,11.006-12.261,20.274-15.834c7.666-2.958,12.281-15.713,10.508-21.16c-0.464-1.42-1.366-2.755-4.603-1.888
					c-13.159,3.52-30.29,13.565-39.33,19.239c-15.06,9.452-25.797,19.595-35.904,33.912c-4.961,7.031-9.801,22.451-14.48,37.365
					C1313.809,1396.771,1310.365,1407.748,1306.783,1416.001z"/>
			</g>
			<g>
				<path style="fill:#FFFFFF;" d="M1360.168,1416.166l-48.524-27.233c-2.147-1.205-4.865-0.388-5.992,1.802l-16.331,31.741
					c-1.075,2.089-0.295,4.654,1.761,5.791l48.765,26.982c2.149,1.189,4.857,0.362,5.974-1.825l16.09-31.49
					C1362.973,1419.855,1362.203,1417.309,1360.168,1416.166z"/>
				<path d="M1341.94,1458.017c-1.096,0-2.179-0.28-3.167-0.826l-48.764-26.981c-3.127-1.732-4.296-5.574-2.66-8.75l16.331-31.74
					c0.823-1.6,2.224-2.766,3.947-3.284c1.724-0.516,3.536-0.319,5.104,0.561l48.524,27.232c3.087,1.732,4.244,5.559,2.633,8.713
					l-16.089,31.491c-0.818,1.6-2.214,2.768-3.932,3.292C1343.232,1457.92,1342.584,1458.017,1341.94,1458.017z M1309.52,1390.596
					c-0.206,0-0.413,0.03-0.616,0.091c-0.558,0.167-1.012,0.546-1.279,1.062l-16.331,31.743c-0.53,1.029-0.151,2.274,0.863,2.835
					l48.765,26.981c0.508,0.284,1.094,0.345,1.649,0.173c0.557-0.169,1.009-0.548,1.274-1.066l16.088-31.491
					c0.522-1.021,0.147-2.26-0.852-2.822l-48.524-27.232C1310.235,1390.687,1309.88,1390.596,1309.52,1390.596z"/>
			</g>
		</g>
		<g>
			<g>
				<path style="fill:#FFFFFF;" d="M751.306,1240.184c0,0-1.82,50.358,0.281,83.939c0.99,15.823,12.012,29.229,27.302,33.422
					l20.109,5.514c10.362,2.841,11.38,17.128,1.525,21.408c-38.872,16.882-116.994,38.464-208.826-3.258
					c-9.799-4.452-8.643-18.703,1.776-21.404l39.596-10.266c14.715-3.815,25.633-16.194,27.578-31.271l15.098-117.008
					L751.306,1240.184z"/>
				<path d="M700.02,1407.523c-32.537,0-69.634-6.3-109.241-24.296c-5.354-2.432-8.488-7.778-7.982-13.619
					c0.501-5.795,4.473-10.488,10.119-11.953l39.596-10.264c13.914-3.606,24.093-15.152,25.933-29.408l15.099-117.007
					c0.092-0.717,0.529-1.346,1.169-1.682c0.641-0.336,1.406-0.338,2.048-0.007l75.562,38.925c0.764,0.392,1.232,1.192,1.202,2.052
					c-0.018,0.503-1.792,50.635,0.277,83.719c0.929,14.838,11.246,27.464,25.673,31.42l20.111,5.514
					c5.642,1.547,9.555,6.316,9.97,12.148s-2.783,11.108-8.148,13.437C779.148,1396.168,743.693,1407.523,700.02,1407.523z
					 M677.542,1204.681l-14.694,113.869c-2.072,16.066-13.543,29.073-29.221,33.136l-39.596,10.264
					c-4.613,1.196-6.543,4.937-6.812,8.041c-0.271,3.136,1.005,7.2,5.397,9.196c91.204,41.437,168.856,19.822,207.024,3.244
					c4.387-1.905,5.712-5.925,5.49-9.051c-0.223-3.127-2.104-6.918-6.718-8.182l-20.109-5.514
					c-16.256-4.458-27.883-18.693-28.929-35.425c-1.888-30.171-0.603-74.333-0.331-82.748L677.542,1204.681z"/>
			</g>
			<g>
				<path style="fill:#FFFFFF;" d="M804.277,1076.446c15.96,16.886,24.231,39.61,24.177,62.845
					c-0.03,13.196-6.919,25.951-9.029,43.936c-5.438,46.367-25.092,83.413-78.762,79.764c0,0-64.436-3.499-72.308-72.599
					c0,0-3.776-34.827,11.968-71.564c10.57-24.662,40.513-74.51,86.872-64.014C783.132,1058.422,795.244,1066.888,804.277,1076.446z
					"/>
				<path d="M747.725,1265.455c-2.353,0-4.752-0.082-7.212-0.249c-0.633-0.035-66.37-4.411-74.363-74.562
					c-0.158-1.459-3.657-35.841,12.135-72.688c5.58-13.021,36.115-77.345,89.401-65.306c14.482,3.279,27.335,10.774,38.203,22.274
					c16.038,16.968,24.841,39.829,24.784,64.372c-0.016,7.267-2.024,14.4-4.149,21.948c-1.926,6.844-3.918,13.921-4.894,22.241
					C815.247,1237.912,790.391,1265.453,747.725,1265.455z M754.682,1055.604c-42.525,0-67.425,52.681-72.318,64.099
					c-15.337,35.789-11.839,70.109-11.802,70.451c7.561,66.359,67.669,70.479,70.224,70.622
					c44.931,3.045,69.936-22.397,76.436-77.807c1.017-8.669,3.148-16.244,5.029-22.928c2.129-7.564,3.968-14.096,3.984-20.754
					c0.053-23.403-8.317-45.178-23.571-61.316c-10.254-10.848-22.352-17.911-35.958-20.991
					C762.556,1056.039,758.543,1055.604,754.682,1055.604z"/>
			</g>
		</g>
		<path d="M712.966,1062.687c0,0,6.872,24.107,44.609,55.106c24.491,20.118,67.139,24.702,74.349,41.11
			c0,0,26.241-99.715-58.604-111.086S712.966,1062.687,712.966,1062.687z"/>
		<g>
			<path d="M703.046,1239.28c-20.401,0-39.541-11.541-48.793-30.77l-10.638-22.113c-0.532-1.105-0.067-2.432,1.037-2.963
				c1.103-0.531,2.432-0.063,2.962,1.038l10.641,22.113c10.594,22.022,35.324,33.058,58.792,26.255l52.157-15.132
				c1.181-0.351,2.409,0.336,2.75,1.513c0.341,1.177-0.336,2.408-1.513,2.748l-52.157,15.132
				C713.215,1238.573,708.09,1239.28,703.046,1239.28z"/>
			<path style="fill:#FFFFFF;" d="M647.365,1129.633c-0.016,0-0.033,0-0.049,0c-1.226-0.026-2.198-1.04-2.172-2.267
				c0.06-2.766,1.858-68.151,38.115-101.929c14.83-13.817,33.406-20.271,55.182-19.198c1.224,0.061,2.167,1.103,2.108,2.328
				c-0.061,1.224-1.151,2.211-2.327,2.107c-20.547-1.025-38.009,5.039-51.928,18.002c-34.88,32.484-36.697,98.128-36.711,98.787
				C649.556,1128.671,648.568,1129.633,647.365,1129.633z"/>
			
				<ellipse transform="matrix(0.1256 -0.9921 0.9921 0.1256 -530.3063 1833.8922)" cx="775.235" cy="1217.795" rx="14.213" ry="14.469"/>
			<g>
				<path style="fill:#FFFFFF;" d="M685.084,1163.199c2.763-21.842-11.232-41.602-31.259-44.136
					c-2.196-0.278-10.335-0.485-12.475-0.342c-17.377,1.167-26.331,15.855-28.791,35.302c-2.653,20.972,5.338,40.568,24.09,44.296
					c0.778,0.155,6.33,0.599,7.134,0.601C665.732,1198.993,682.32,1185.041,685.084,1163.199z"/>
				<path d="M643.953,1201.14c-0.06,0-0.118,0-0.178,0c-0.86-0.002-6.604-0.453-7.563-0.646
					c-18.535-3.684-28.927-22.471-25.855-46.749c2.893-22.87,13.847-36.095,30.844-37.239c2.154-0.141,10.493,0.05,12.902,0.355
					c10.31,1.305,19.441,6.896,25.709,15.748c6.226,8.791,8.881,19.753,7.474,30.869
					C684.434,1186.025,667.029,1201.14,643.953,1201.14z M643.542,1120.892c-0.877,0-1.597,0.013-2.044,0.043
					c-19.759,1.329-25.233,21.476-26.737,33.366c-2.298,18.16,3.713,38.141,22.32,41.84c0.721,0.13,6.01,0.557,6.708,0.559
					c0.055,0,0.113,0,0.168,0c21.059,0.002,36.327-13.242,38.925-33.782c1.267-10.009-1.11-19.864-6.693-27.746
					c-5.54-7.822-13.581-12.761-22.643-13.908C651.996,1121.068,646.737,1120.892,643.542,1120.892z"/>
			</g>
			<g>
				
					<ellipse transform="matrix(0.1061 -0.9944 0.9944 0.1061 -579.8893 1672.1908)" style="fill:#FFFFFF;" cx="640.074" cy="1158.611" rx="39.863" ry="36.552"/>
				<path d="M639.432,1200.661c-1.266,0-2.538-0.067-3.821-0.204c-21.258-2.267-36.55-22.885-34.088-45.958
					c1.188-11.14,6.292-21.199,14.374-28.323c8.136-7.172,18.312-10.516,28.641-9.411c10.334,1.101,19.572,6.515,26.012,15.241
					c6.397,8.667,9.265,19.575,8.077,30.718C676.314,1184.403,659.133,1200.661,639.432,1200.661z M640.684,1120.998
					c-7.903,0-15.556,2.958-21.853,8.507c-7.245,6.387-11.825,15.431-12.896,25.466c-2.201,20.639,11.322,39.064,30.145,41.073
					c18.817,1.998,35.931-13.149,38.133-33.793c1.07-10.032-1.5-19.838-7.236-27.609c-5.692-7.714-13.829-12.495-22.911-13.463
					C642.937,1121.059,641.808,1120.998,640.684,1120.998z"/>
			</g>
		</g>
		<g>
			<g>
				<path style="fill:#FFFFFF;" d="M740.557,1197.478c-4.755-6.267-38.545,6.545-52.363,11.636
					c-13.818,5.091-49.454,53.091-52.363,85.09c-2.909,32,6.545,85.818-0.727,104.727c0,0,17.454,16,50.182,11.636
					c0,0,3.636-30.545,10.182-41.454c6.545-10.909,46.545-40,43.636-59.636c-2.207-14.897-30.368-26.027-43.831-30.532
					c-2.168-0.725-2.029-3.856,0.202-4.356c6.904-1.548,17.96-2.805,29.811,0.706c19.636,5.818,37.091-3.636,29.091-14.545
					c-7.179-9.79-36.029-20.165-56.59-17.986c-0.843,0.089-1.151-1.051-0.375-1.393
					C713.417,1234.319,753.455,1214.48,740.557,1197.478z"/>
				<path d="M674.063,1413.55c-25.96,0-39.807-12.384-40.461-12.982c-0.672-0.618-0.899-1.582-0.571-2.434
					c3.972-10.327,2.711-31.981,1.377-54.907c-1.011-17.352-2.055-35.293-0.789-49.224c3.013-33.136,39.651-81.758,53.806-86.973
					l1.722-0.635c29.398-10.856,48.549-16.361,53.177-10.26c2.76,3.639,3.605,7.629,2.51,11.855
					c-3.284,12.681-23.958,24.749-39.67,32.263c20.616,0.418,44.315,10.072,50.999,19.183c2.986,4.072,3.204,8.531,0.601,12.232
					c-5.067,7.204-18.873,9.675-32.112,5.754c-11.281-3.342-21.83-2.206-28.694-0.668c15.944,5.416,43.013,16.701,45.338,32.397
					c2.175,14.684-16.148,32.62-30.87,47.031c-6,5.871-11.181,10.943-13.058,14.072c-6.227,10.375-9.845,40.273-9.881,40.574
					c-0.12,1.006-0.906,1.803-1.911,1.938C681.508,1413.31,677.669,1413.55,674.063,1413.55z M637.712,1398.186
					c4.154,3.132,19.872,13.307,45.589,10.39c0.886-6.727,4.39-30.819,10.263-40.605c2.171-3.617,7.284-8.624,13.758-14.961
					c13.264-12.982,31.428-30.763,29.585-43.208c-2.052-13.849-30.293-24.723-42.34-28.754c-1.934-0.646-3.164-2.451-3.06-4.493
					c0.104-2.029,1.503-3.689,3.482-4.131c7.376-1.654,18.729-2.872,30.927,0.741c12.453,3.689,23.828,0.769,27.221-4.053
					c1.501-2.133,1.315-4.506-0.552-7.05c-6.651-9.073-34.858-19.157-54.565-17.094c-1.493,0.154-2.801-0.763-3.176-2.176
					c-0.374-1.413,0.332-2.865,1.677-3.455c25.17-11.09,41.627-23.225,44.018-32.46c0.748-2.887,0.175-5.522-1.75-8.06
					c-1.629-2.15-11.299-1.851-48.103,11.74l-1.725,0.637c-13.016,4.796-48.094,52.12-50.919,83.21
					c-1.238,13.6-0.203,31.374,0.799,48.563C640.143,1365.355,641.377,1386.558,637.712,1398.186z M698.31,1243.4
					c-0.001,0-0.002,0.002-0.004,0.002C698.307,1243.402,698.309,1243.4,698.31,1243.4z"/>
			</g>
			<g>
				<path style="fill:#FFFFFF;" d="M691.685,1388.81c-8.249,1.151-30.136,2.333-56.595-11.244c-1.61-0.826-3.566,0.139-3.919,1.914
					l-6.145,30.863c-0.234,1.175,0.309,2.359,1.359,2.936c7.134,3.923,35.05,17.578,63.318,8.405
					c1.014-0.329,1.737-1.241,1.861-2.299l3.216-27.539C694.988,1390.06,693.465,1388.561,691.685,1388.81z"/>
				<path d="M669.398,1427.024c-20.604,0.002-38.086-8.502-44.083-11.801c-1.901-1.042-2.892-3.179-2.467-5.314l6.145-30.863
					c0.309-1.545,1.299-2.822,2.718-3.507c1.408-0.676,3.008-0.659,4.393,0.052c25.904,13.292,47.288,12.133,55.274,11.021
					c1.524-0.221,3.042,0.28,4.146,1.361c1.107,1.081,1.64,2.588,1.46,4.131l-3.216,27.538c-0.227,1.929-1.553,3.559-3.379,4.153
					C683.255,1426.11,676.157,1427.024,669.398,1427.024z M633.857,1379.486c-0.087,0-0.161,0.024-0.219,0.052
					c-0.09,0.043-0.247,0.15-0.292,0.375l-6.144,30.863c-0.047,0.23,0.052,0.449,0.251,0.557c7.569,4.161,34.379,17.055,61.565,8.24
					c0.179-0.058,0.316-0.238,0.341-0.449l3.216-27.536c0.025-0.217-0.07-0.36-0.154-0.442c-0.081-0.078-0.229-0.169-0.429-0.139
					c-8.408,1.177-30.884,2.406-57.916-11.467C633.998,1379.501,633.924,1379.486,633.857,1379.486z M691.685,1388.81h0.022H691.685
					z"/>
			</g>
		</g>
	</g>
	<g>
		<g>
			<path style="fill:#FFFFFF;" d="M2135.066,1280.797l-288.308,50.403l-285.997-50.105c-0.403-0.071-0.403-0.652,0-0.723
				l289.267-50.65L2135.066,1280.797z"/>
			<polygon points="1740.133,1249.712 2020.482,1300.308 1957.539,1311.313 1677.038,1260.596 			"/>
			<g>
				<polygon style="fill:#FFFFFF;" points="1846.813,1758.366 1846.813,1330.78 2136.252,1280.619 2136.252,1707.031 				"/>
				<polygon points="1960.017,1358.33 1960.017,1310.808 2023.047,1299.885 2023.047,1347.151 				"/>
				<path d="M1846.812,1760.586c-0.517,0-1.023-0.182-1.426-0.518c-0.503-0.423-0.793-1.045-0.793-1.701V1330.78
					c0-1.079,0.777-2.003,1.84-2.187l289.439-50.163c0.65-0.115,1.308,0.065,1.809,0.49c0.501,0.421,0.79,1.042,0.79,1.697v426.414
					c0,1.077-0.773,1.998-1.831,2.185l-289.439,51.335C1847.071,1760.575,1846.941,1760.586,1846.812,1760.586z M1849.032,1332.648
					v423.07l285.001-50.546v-421.917L1849.032,1332.648z"/>
				<g>
					<path d="M1898.921,1598.746c-0.517,0-1.022-0.18-1.424-0.518c-0.504-0.42-0.795-1.045-0.795-1.701v-204.415
						c0-1.077,0.775-2,1.837-2.187l187.081-32.746c0.645-0.113,1.309,0.065,1.81,0.488c0.503,0.423,0.792,1.045,0.792,1.699v203.65
						c0,1.075-0.77,1.996-1.828,2.185l-187.081,33.511C1899.182,1598.735,1899.051,1598.746,1898.921,1598.746z M1901.141,1393.975
						v199.899l182.642-32.716v-199.151L1901.141,1393.975z"/>
					<g>
						<g>
							<path d="M1976.141,1559.566c-0.074,0-0.151-0.003-0.222-0.009c-6.415-0.157-12.415-2.87-16.951-7.684
								c-4.64-4.92-7.192-11.452-7.188-18.391l0.01-4.341c0.005-3.496,2.756-6.344,6.131-6.344c1.666,0,3.224,0.68,4.387,1.914
								c1.127,1.197,1.747,2.776,1.745,4.449l-0.002,4.529c0,3.541,1.293,6.865,3.645,9.357c2.316,2.455,5.384,3.808,8.639,3.808
								c0.024,0,0.05,0,0.074,0.002c3.206-0.037,6.224-1.384,8.508-3.804c2.353-2.492,3.648-5.815,3.648-9.359l0.042-127.297
								c0-1.83,0.76-3.571,2.086-4.777c1.269-1.154,2.959-1.72,4.654-1.546c3.094,0.314,5.518,3.161,5.518,6.481V1533.5
								c0,6.938-2.555,13.466-7.195,18.384c-4.557,4.829-10.589,7.544-17.033,7.677c-0.04,0.002-0.08,0.004-0.121,0.004h-0.144
								C1976.293,1559.566,1976.217,1559.566,1976.141,1559.566z"/>
						</g>
						<path d="M2052.078,1466.652c3.825-0.656,6.287-4.482,5.301-8.259c-8.701-33.3-38.003-43.622-69.243-38.207
							c-30.057,5.21-52.791,28.637-60.371,58.178c-1.208,4.709,2.739,9.129,7.502,8.312L2052.078,1466.652z"/>
					</g>
				</g>
			</g>
			<g>
				<polygon style="fill:#FFFFFF;" points="1846.813,1758.366 1846.813,1330.78 1559.884,1280.555 1559.884,1707.28 				"/>
				<path d="M1846.812,1760.586c-0.129,0-0.26-0.011-0.389-0.035l-286.929-51.086c-1.059-0.189-1.83-1.11-1.83-2.185v-426.726
					c0-0.655,0.289-1.277,0.792-1.699c0.501-0.42,1.162-0.596,1.81-0.488l286.929,50.226c1.062,0.186,1.837,1.11,1.837,2.187
					v427.587c0,0.657-0.291,1.279-0.794,1.701C1847.835,1760.406,1847.329,1760.586,1846.812,1760.586z M1562.103,1705.421
					l282.49,50.297v-423.074l-282.49-49.448V1705.421z"/>
				<g>
					<g>
						<g>
							<g>
								<g>
									<path d="M1770.448,1569.244c-0.124,0-0.248-0.011-0.373-0.033l-141.581-24.12c-1.066-0.18-1.847-1.105-1.847-2.187v-31.443
										c0-0.657,0.29-1.279,0.792-1.699c0.503-0.422,1.168-0.602,1.81-0.488l141.581,24.809c1.062,0.186,1.837,1.11,1.837,2.187
										v30.754c0,0.655-0.288,1.274-0.788,1.697C1771.476,1569.062,1770.968,1569.244,1770.448,1569.244z M1631.086,1541.032
										l137.143,23.364v-26.261l-137.143-24.031V1541.032z"/>
								</g>
							</g>
						</g>
						<g>
							<g>
								<g>
									<g>
										<path d="M1748.528,1516.509c-0.124,0-0.248-0.011-0.373-0.032l-28.274-4.818c-1.066-0.18-1.847-1.105-1.847-2.187v-72.649
											l-13.088-2.291c-0.799-0.141-1.458-0.704-1.719-1.472s-0.083-1.617,0.464-2.213l29.062-31.749
											c0.456-0.496,1.112-0.754,1.785-0.717c0.673,0.046,1.29,0.394,1.674,0.947l29.229,42.009
											c0.513,0.737,0.531,1.71,0.048,2.464s-1.363,1.153-2.26,0.988l-12.482-2.226v71.725c0,0.654-0.288,1.274-0.788,1.697
											C1749.556,1516.327,1749.048,1516.509,1748.528,1516.509z M1722.473,1507.599l23.835,4.062v-71.747
											c0-0.657,0.29-1.281,0.794-1.701c0.504-0.423,1.173-0.592,1.815-0.483l9.823,1.751l-24.587-35.338l-24.455,26.717
											l10.938,1.914c1.062,0.186,1.837,1.11,1.837,2.187V1507.599z"/>
									</g>
								</g>
							</g>
							<g>
								<g>
									<g>
										<path d="M1678.895,1504.777c-0.124,0-0.248-0.011-0.373-0.032l-28.274-4.816c-1.066-0.18-1.847-1.105-1.847-2.187v-72.649
											l-13.088-2.291c-0.799-0.141-1.458-0.704-1.719-1.472c-0.261-0.767-0.083-1.617,0.464-2.213l29.063-31.749
											c0.456-0.496,1.113-0.748,1.785-0.717c0.673,0.046,1.29,0.395,1.674,0.947l29.228,42.009
											c0.512,0.737,0.531,1.71,0.048,2.464c-0.483,0.754-1.363,1.155-2.259,0.988l-12.482-2.226v71.723
											c0,0.655-0.288,1.274-0.788,1.697C1679.923,1504.595,1679.415,1504.777,1678.895,1504.777z M1652.84,1495.869
											l23.835,4.059v-71.745c0-0.657,0.29-1.281,0.794-1.701c0.506-0.423,1.173-0.594,1.815-0.483l9.823,1.751l-24.587-35.338
											l-24.455,26.717l10.938,1.914c1.062,0.186,1.837,1.11,1.837,2.187V1495.869z"/>
									</g>
								</g>
							</g>
						</g>
					</g>
					<path d="M1793.198,1598.746c-0.13,0-0.261-0.011-0.391-0.035l-187.082-33.511c-1.058-0.189-1.828-1.11-1.828-2.185v-203.65
						c0-0.654,0.289-1.276,0.792-1.699c0.501-0.423,1.165-0.6,1.81-0.488l187.082,32.746c1.062,0.186,1.837,1.11,1.837,2.187
						v204.415c0,0.657-0.292,1.281-0.795,1.701C1794.22,1598.566,1793.715,1598.746,1793.198,1598.746z M1608.335,1561.158
						l182.643,32.716v-199.899l-182.643-31.968V1561.158z"/>
				</g>
			</g>
			<path d="M1846.757,1333.42c-0.128,0-0.256-0.011-0.383-0.032l-285.997-50.106c-1.237-0.214-2.138-1.285-2.138-2.547
				c0-1.263,0.902-2.334,2.144-2.549l289.262-50.65c0.258-0.041,0.52-0.043,0.774,0.002l285.038,51.075
				c1.06,0.191,1.83,1.112,1.828,2.189s-0.777,1.996-1.837,2.182l-288.308,50.403
				C1847.013,1333.409,1846.885,1333.42,1846.757,1333.42z M1571.565,1280.734l275.193,48.212l275.575-48.175l-272.309-48.795
				L1571.565,1280.734z"/>
		</g>
	</g>
	<g>
		<g>
			<path style="fill:#FFFFFF;" d="M2009.322,1685.211l-288.308,50.403l-285.997-50.105c-0.403-0.071-0.403-0.652,0-0.723
				l289.267-50.651L2009.322,1685.211z"/>
			<polygon points="1614.389,1654.127 1894.738,1704.723 1831.795,1715.727 1551.294,1665.011 			"/>
			<g>
				<polygon style="fill:#FFFFFF;" points="1721.069,2162.78 1721.069,1735.195 2010.508,1685.033 2010.508,2111.445 				"/>
				<polygon points="1834.274,1762.744 1834.274,1715.222 1897.304,1704.299 1897.304,1751.565 				"/>
				<path d="M1721.069,2165c-0.517,0-1.023-0.182-1.426-0.518c-0.503-0.423-0.793-1.045-0.793-1.701v-427.587
					c0-1.079,0.777-2.003,1.84-2.187l289.439-50.16c0.651-0.111,1.308,0.067,1.809,0.49c0.501,0.421,0.79,1.042,0.79,1.697v426.412
					c0,1.077-0.773,1.998-1.831,2.185l-289.44,51.335C1721.328,2164.989,1721.198,2165,1721.069,2165z M1723.288,1737.062v423.07
					l285.001-50.546v-421.915L1723.288,1737.062z"/>
				<g>
					<path d="M1773.178,2003.16c-0.517,0-1.022-0.18-1.424-0.518c-0.504-0.421-0.795-1.045-0.795-1.701v-204.415
						c0-1.077,0.775-2,1.837-2.187l187.081-32.744c0.646-0.115,1.309,0.065,1.81,0.488c0.503,0.423,0.792,1.045,0.792,1.699v203.65
						c0,1.075-0.771,1.996-1.828,2.185l-187.081,33.509C1773.439,2003.149,1773.308,2003.16,1773.178,2003.16z M1775.397,1798.389
						v199.899l182.642-32.714v-199.151L1775.397,1798.389z"/>
					<g>
						<g>
							<path d="M1850.397,1963.98c-0.074,0-0.151-0.003-0.222-0.009c-6.415-0.157-12.415-2.87-16.951-7.684
								c-4.64-4.92-7.192-11.451-7.188-18.391l0.01-4.341c0.005-3.496,2.756-6.344,6.131-6.344c1.666,0,3.224,0.68,4.387,1.913
								c1.127,1.197,1.747,2.776,1.745,4.449l-0.002,4.529c0,3.541,1.293,6.865,3.644,9.357c2.316,2.455,5.384,3.808,8.639,3.808
								c0.024,0,0.05,0,0.074,0.002c3.206-0.037,6.224-1.384,8.508-3.804c2.353-2.492,3.648-5.815,3.648-9.359l0.042-127.297
								c0-1.83,0.76-3.571,2.086-4.777c1.269-1.154,2.959-1.72,4.654-1.546c3.094,0.314,5.518,3.161,5.518,6.481v126.945
								c0,6.938-2.556,13.466-7.195,18.384c-4.557,4.829-10.589,7.544-17.033,7.677c-0.04,0.002-0.08,0.003-0.121,0.003h-0.144
								C1850.549,1963.98,1850.473,1963.98,1850.397,1963.98z"/>
						</g>
						<path d="M1926.334,1871.066c3.825-0.656,6.288-4.482,5.301-8.259c-8.701-33.3-38.003-43.622-69.243-38.207
							c-30.056,5.21-52.791,28.637-60.371,58.178c-1.208,4.709,2.739,9.129,7.502,8.312L1926.334,1871.066z"/>
					</g>
				</g>
			</g>
			<g>
				<polygon style="fill:#FFFFFF;" points="1721.069,2162.78 1721.069,1735.195 1434.14,1684.969 1434.14,2111.694 				"/>
				<path d="M1721.069,2165c-0.129,0-0.26-0.011-0.389-0.035l-286.929-51.086c-1.059-0.188-1.83-1.11-1.83-2.185v-426.726
					c0-0.654,0.289-1.276,0.792-1.699c0.5-0.42,1.163-0.596,1.81-0.488l286.929,50.225c1.062,0.186,1.837,1.11,1.837,2.187v427.587
					c0,0.657-0.29,1.279-0.794,1.701C1722.092,2164.82,1721.586,2165,1721.069,2165z M1436.359,2109.835l282.49,50.297v-423.074
					l-282.49-49.447V2109.835z"/>
				<g>
					<g>
						<g>
							<g>
								<g>
									<path d="M1644.704,1973.66c-0.124,0-0.248-0.011-0.373-0.033l-141.582-24.12c-1.066-0.18-1.846-1.105-1.846-2.187v-31.446
										c0-0.657,0.29-1.279,0.792-1.699c0.503-0.423,1.166-0.596,1.81-0.488l141.581,24.809c1.062,0.186,1.837,1.11,1.837,2.187
										v30.756c0,0.655-0.288,1.274-0.788,1.697C1645.733,1973.478,1645.224,1973.66,1644.704,1973.66z M1505.342,1945.448
										l137.143,23.364v-26.264l-137.143-24.031V1945.448z"/>
								</g>
							</g>
						</g>
						<g>
							<g>
								<g>
									<g>
										<path d="M1622.784,1920.923c-0.124,0-0.248-0.011-0.373-0.032l-28.274-4.818c-1.066-0.18-1.847-1.105-1.847-2.187v-72.649
											l-13.088-2.289c-0.799-0.141-1.458-0.704-1.719-1.472c-0.261-0.767-0.083-1.617,0.464-2.213l29.062-31.751
											c0.456-0.496,1.118-0.752,1.785-0.717c0.673,0.046,1.289,0.395,1.674,0.947l29.229,42.009
											c0.512,0.737,0.531,1.71,0.047,2.464c-0.484,0.756-1.367,1.149-2.259,0.988l-12.482-2.226v71.725
											c0,0.655-0.288,1.274-0.788,1.697C1623.812,1920.74,1623.304,1920.923,1622.784,1920.923z M1596.729,1912.013
											l23.835,4.062v-71.747c0-0.657,0.29-1.281,0.794-1.701c0.505-0.423,1.172-0.6,1.815-0.483l9.823,1.751l-24.587-35.338
											l-24.455,26.717l10.937,1.914c1.062,0.186,1.837,1.11,1.837,2.187V1912.013z"/>
									</g>
								</g>
							</g>
							<g>
								<g>
									<g>
										<path d="M1553.151,1909.193c-0.124,0-0.248-0.011-0.373-0.032l-28.274-4.818c-1.066-0.18-1.846-1.105-1.846-2.187v-72.649
											l-13.089-2.291c-0.799-0.141-1.458-0.704-1.719-1.472c-0.261-0.767-0.083-1.617,0.464-2.213l29.063-31.749
											c0.456-0.496,1.116-0.75,1.785-0.717c0.673,0.046,1.29,0.394,1.674,0.947l29.227,42.009
											c0.513,0.737,0.531,1.71,0.048,2.464c-0.484,0.754-1.369,1.149-2.259,0.988l-12.482-2.226v71.725
											c0,0.654-0.288,1.274-0.788,1.697C1554.179,1909.011,1553.671,1909.193,1553.151,1909.193z M1527.097,1900.283
											l23.835,4.062v-71.747c0-0.657,0.29-1.281,0.794-1.701c0.505-0.422,1.172-0.602,1.815-0.483l9.823,1.751l-24.587-35.338
											l-24.455,26.717l10.937,1.914c1.062,0.186,1.837,1.11,1.837,2.187V1900.283z"/>
									</g>
								</g>
							</g>
						</g>
					</g>
					<path d="M1667.455,2003.16c-0.13,0-0.261-0.011-0.391-0.035l-187.082-33.509c-1.058-0.189-1.828-1.11-1.828-2.185v-203.65
						c0-0.654,0.289-1.276,0.792-1.699c0.501-0.423,1.162-0.603,1.81-0.488l187.082,32.744c1.062,0.186,1.837,1.11,1.837,2.187
						v204.415c0,0.657-0.292,1.281-0.795,1.701C1668.476,2002.98,1667.972,2003.16,1667.455,2003.16z M1482.592,1965.574
						l182.644,32.714v-199.899l-182.644-31.966V1965.574z"/>
				</g>
			</g>
			<path d="M1721.013,1737.834c-0.128,0-0.256-0.011-0.383-0.032l-285.997-50.106c-1.236-0.215-2.138-1.285-2.138-2.547
				c0-1.264,0.902-2.334,2.143-2.549l289.262-50.65c0.258-0.041,0.52-0.043,0.774,0.002l285.038,51.075
				c1.06,0.191,1.83,1.112,1.828,2.189c-0.002,1.077-0.777,1.996-1.837,2.182l-288.308,50.403
				C1721.269,1737.823,1721.141,1737.834,1721.013,1737.834z M1445.821,1685.148l275.193,48.212l275.575-48.175l-272.309-48.795
				L1445.821,1685.148z"/>
		</g>
	</g>
</g>
</svg>
